<svg width="165" height="63" viewBox="0 0 165 63" fill="none" xmlns="http://www.w3.org/2000/svg">
<rect width="165" height="63" rx="20" fill="url(#paint0_linear_117_17)"/>
<path d="M25.7969 22.7227H30.2402C32.1413 22.7227 33.5801 22.9896 34.5566 23.5234C35.5332 24.0573 36.0215 24.9948 36.0215 26.3359C36.0215 26.8763 35.9336 27.3646 35.7578 27.8008C35.5885 28.237 35.3411 28.5951 35.0156 28.875C34.6901 29.1549 34.293 29.3372 33.8242 29.4219V29.5195C34.2995 29.6172 34.7292 29.7865 35.1133 30.0273C35.4974 30.2617 35.8034 30.6068 36.0312 31.0625C36.2656 31.5117 36.3828 32.1107 36.3828 32.8594C36.3828 33.7253 36.1712 34.4674 35.748 35.0859C35.3249 35.7044 34.7194 36.1797 33.9316 36.5117C33.1504 36.8372 32.2194 37 31.1387 37H25.7969V22.7227ZM28.8242 28.377H30.582C31.4609 28.377 32.0697 28.2402 32.4082 27.9668C32.7467 27.6868 32.916 27.2767 32.916 26.7363C32.916 26.1895 32.7142 25.7988 32.3105 25.5645C31.9134 25.3236 31.2819 25.2031 30.416 25.2031H28.8242V28.377ZM28.8242 30.7793V34.5H30.7969C31.7083 34.5 32.3431 34.3242 32.7012 33.9727C33.0592 33.6211 33.2383 33.1491 33.2383 32.5566C33.2383 32.2051 33.1602 31.8958 33.0039 31.6289C32.8477 31.362 32.584 31.1536 32.2129 31.0039C31.8483 30.8542 31.3438 30.7793 30.6992 30.7793H28.8242ZM56.3703 37H52.9328L47.757 29.7637V37H44.7297V22.7227H47.757V29.6367L52.8742 22.7227H56.0969L50.8918 29.5781L56.3703 37ZM71.2762 29.8418C71.2762 30.9421 71.1395 31.9447 70.866 32.8496C70.5926 33.748 70.1759 34.5228 69.616 35.1738C69.0626 35.8249 68.3595 36.3262 67.5066 36.6777C66.6538 37.0228 65.6447 37.1953 64.4793 37.1953C63.3139 37.1953 62.3048 37.0228 61.452 36.6777C60.5991 36.3262 59.8927 35.8249 59.3328 35.1738C58.7794 34.5228 58.366 33.7448 58.0926 32.8398C57.8191 31.9349 57.6824 30.929 57.6824 29.8223C57.6824 28.3444 57.9233 27.0586 58.4051 25.9648C58.8934 24.8646 59.6421 24.0117 60.6512 23.4062C61.6603 22.8008 62.9428 22.498 64.4988 22.498C66.0483 22.498 67.3211 22.8008 68.3172 23.4062C69.3198 24.0117 70.062 24.8646 70.5438 25.9648C71.032 27.0651 71.2762 28.3574 71.2762 29.8418ZM60.8563 29.8418C60.8563 30.8379 60.9799 31.6973 61.2273 32.4199C61.4813 33.1361 61.8751 33.6895 62.409 34.0801C62.9428 34.4642 63.6329 34.6562 64.4793 34.6562C65.3387 34.6562 66.0353 34.4642 66.5691 34.0801C67.103 33.6895 67.4904 33.1361 67.7313 32.4199C67.9786 31.6973 68.1023 30.8379 68.1023 29.8418C68.1023 28.3444 67.8224 27.166 67.2625 26.3066C66.7026 25.4473 65.7814 25.0176 64.4988 25.0176C63.646 25.0176 62.9493 25.2129 62.409 25.6035C61.8751 25.9876 61.4813 26.541 61.2273 27.2637C60.9799 27.9798 60.8563 28.8392 60.8563 29.8418ZM78.9457 22.7227C80.7881 22.7227 82.1326 23.1198 82.9789 23.9141C83.8253 24.7018 84.2484 25.7891 84.2484 27.1758C84.2484 27.8008 84.154 28.3997 83.9652 28.9727C83.7764 29.5391 83.4672 30.0436 83.0375 30.4863C82.6143 30.929 82.0479 31.2806 81.3383 31.541C80.6286 31.7949 79.753 31.9219 78.7113 31.9219H77.4125V37H74.3852V22.7227H78.9457ZM78.7895 25.2031H77.4125V29.4414H78.4086C78.975 29.4414 79.4665 29.3665 79.8832 29.2168C80.2999 29.0671 80.6221 28.8327 80.85 28.5137C81.0779 28.1947 81.1918 27.7845 81.1918 27.2832C81.1918 26.5801 80.9965 26.0592 80.6059 25.7207C80.2152 25.3757 79.6098 25.2031 78.7895 25.2031ZM96.957 26.0625C96.957 27.0195 96.6152 27.791 95.9316 28.377C95.248 28.9629 94.3822 29.3307 93.334 29.4805V29.5391C94.6361 29.6693 95.6387 30.0306 96.3418 30.623C97.0449 31.2155 97.3965 31.987 97.3965 32.9375C97.3965 33.7708 97.1686 34.5098 96.7129 35.1543C96.2572 35.7923 95.5833 36.2936 94.6914 36.6582C93.7995 37.0163 92.696 37.1953 91.3809 37.1953C90.3001 37.1953 89.3398 37.1302 88.5 37C87.6667 36.8633 86.944 36.6712 86.332 36.4238V33.8848C86.7487 34.0801 87.2142 34.2493 87.7285 34.3926C88.2493 34.5293 88.7767 34.6367 89.3105 34.7148C89.8444 34.7865 90.3392 34.8223 90.7949 34.8223C92.0579 34.8223 92.9727 34.64 93.5391 34.2754C94.112 33.9108 94.3984 33.3932 94.3984 32.7227C94.3984 32.0391 93.985 31.541 93.1582 31.2285C92.3314 30.916 91.2181 30.7598 89.8184 30.7598H88.4805V28.3965H89.6816C90.8145 28.3965 91.6934 28.3249 92.3184 28.1816C92.9499 28.0319 93.3893 27.8203 93.6367 27.5469C93.8906 27.2669 94.0176 26.9316 94.0176 26.541C94.0176 26.0527 93.7995 25.6654 93.3633 25.3789C92.9271 25.0859 92.2793 24.9395 91.4199 24.9395C90.6777 24.9395 89.9844 25.0469 89.3398 25.2617C88.6953 25.4701 88.0931 25.75 87.5332 26.1016L86.2148 24.0801C86.7031 23.7611 87.224 23.4844 87.7773 23.25C88.3372 23.0156 88.9492 22.8366 89.6133 22.7129C90.2773 22.5827 91.0195 22.5176 91.8398 22.5176C92.9141 22.5176 93.832 22.6706 94.5938 22.9766C95.3555 23.2826 95.9382 23.7025 96.3418 24.2363C96.752 24.7637 96.957 25.3724 96.957 26.0625ZM100.213 22.7227H102.937V29.6172C102.937 29.9557 102.931 30.3301 102.918 30.7402C102.911 31.1504 102.898 31.554 102.879 31.9512C102.865 32.3418 102.852 32.6836 102.839 32.9766C102.826 33.2695 102.813 33.4648 102.8 33.5625H102.859L109.451 22.7227H113.074V37H110.379V30.1445C110.379 29.7799 110.385 29.3828 110.398 28.9531C110.411 28.5234 110.427 28.1068 110.447 27.7031C110.473 27.2995 110.496 26.9512 110.515 26.6582C110.535 26.3587 110.548 26.1602 110.554 26.0625H110.476L103.855 37H100.213V22.7227ZM128.527 37H125.509V30.8379H119.855V37H116.827V22.7227H119.855V28.3184H125.509V22.7227H128.527V37ZM143.755 22.7227L139.331 32.8203C138.934 33.7318 138.511 34.5163 138.061 35.1738C137.612 35.8249 137.042 36.3262 136.352 36.6777C135.662 37.0228 134.757 37.1953 133.637 37.1953C133.286 37.1953 132.905 37.1693 132.495 37.1172C132.085 37.0716 131.704 37 131.352 36.9023V34.3047C131.678 34.4284 132.029 34.5195 132.407 34.5781C132.791 34.6302 133.152 34.6562 133.491 34.6562C133.934 34.6562 134.292 34.5814 134.565 34.4316C134.839 34.2819 135.057 34.0801 135.22 33.8262C135.382 33.5723 135.519 33.2891 135.63 32.9766L130.688 22.7227H133.891L136.557 28.9043C136.616 29.0345 136.691 29.2103 136.782 29.4316C136.88 29.6465 136.974 29.8678 137.065 30.0957C137.163 30.3171 137.238 30.5124 137.29 30.6816H137.397C137.449 30.5189 137.518 30.3236 137.602 30.0957C137.693 29.8613 137.788 29.6237 137.886 29.3828C137.983 29.1354 138.071 28.9141 138.149 28.7188L140.63 22.7227H143.755Z" fill="white"/>
<defs>
<linearGradient id="paint0_linear_117_17" x1="82.5" y1="0" x2="82.5" y2="63" gradientUnits="userSpaceOnUse">
<stop stop-color="#AB0000"/>
<stop offset="1" stop-color="#FF0000"/>
</linearGradient>
</defs>
</svg>
