<svg width="25" height="12" viewBox="0 0 25 12" fill="none" xmlns="http://www.w3.org/2000/svg">
<g id="Component 8">
<path id="Vector" d="M1.38889 2H23.6111C23.9795 2 24.3327 1.89464 24.5932 1.70711C24.8537 1.51957 25 1.26522 25 1C25 0.734784 24.8537 0.48043 24.5932 0.292893C24.3327 0.105357 23.9795 0 23.6111 0H1.38889C1.02053 0 0.667264 0.105357 0.406796 0.292893C0.146329 0.48043 0 0.734784 0 1C0 1.26522 0.146329 1.51957 0.406796 1.70711C0.667264 1.89464 1.02053 2 1.38889 2Z" fill="white"/>
<path id="Vector_2" d="M1.38889 12H23.6111C23.9795 12 24.3327 11.8946 24.5932 11.7071C24.8537 11.5196 25 11.2652 25 11C25 10.7348 24.8537 10.4804 24.5932 10.2929C24.3327 10.1054 23.9795 10 23.6111 10H1.38889C1.02053 10 0.667264 10.1054 0.406796 10.2929C0.146329 10.4804 0 10.7348 0 11C0 11.2652 0.146329 11.5196 0.406796 11.7071C0.667264 11.8946 1.02053 12 1.38889 12Z" fill="white"/>
<path id="Vector_3" d="M1.38889 7H23.6111C23.9795 7 24.3327 6.89464 24.5932 6.70711C24.8537 6.51957 25 6.26522 25 6C25 5.73478 24.8537 5.48043 24.5932 5.29289C24.3327 5.10536 23.9795 5 23.6111 5H1.38889C1.02053 5 0.667264 5.10536 0.406796 5.29289C0.146329 5.48043 0 5.73478 0 6C0 6.26522 0.146329 6.51957 0.406796 6.70711C0.667264 6.89464 1.02053 7 1.38889 7Z" fill="white"/>
</g>
</svg>
