<svg width="1440" height="300" viewBox="0 0 1440 300" fill="none" xmlns="http://www.w3.org/2000/svg">
<rect width="1440" height="300" fill="#D9D9D9"/>
<path d="M79.528 87.56C76.712 87.56 74.312 87.176 72.328 86.408C70.3653 85.64 68.8613 84.5307 67.816 83.08C66.7707 81.608 66.248 79.8373 66.248 77.768C66.248 75.656 66.7707 73.8747 67.816 72.424C68.8613 70.9733 70.3653 69.864 72.328 69.096C74.312 68.328 76.712 67.944 79.528 67.944C79.5707 67.944 79.6667 67.944 79.816 67.944C79.9867 67.944 80.1467 67.944 80.296 67.944C80.4667 67.944 80.5627 67.944 80.584 67.944C83.3787 67.944 85.7573 68.328 87.72 69.096C89.6827 69.864 91.176 70.984 92.2 72.456C93.224 73.9067 93.736 75.6773 93.736 77.768C93.736 79.816 93.224 81.576 92.2 83.048C91.1973 84.52 89.7253 85.64 87.784 86.408C85.864 87.176 83.5173 87.56 80.744 87.56C80.7013 87.56 80.584 87.56 80.392 87.56C80.2213 87.56 80.04 87.56 79.848 87.56C79.6773 87.56 79.5707 87.56 79.528 87.56ZM79.944 84.328C79.9867 84.328 80.0507 84.328 80.136 84.328C80.2213 84.328 80.2747 84.328 80.296 84.328C82.3653 84.3067 84.0933 84.0507 85.48 83.56C86.888 83.0693 87.944 82.344 88.648 81.384C89.3733 80.4027 89.736 79.1867 89.736 77.736C89.736 76.2853 89.3733 75.08 88.648 74.12C87.9227 73.16 86.8667 72.4347 85.48 71.944C84.0933 71.4533 82.3867 71.208 80.36 71.208C80.3387 71.208 80.2747 71.208 80.168 71.208C80.0613 71.208 79.9867 71.208 79.944 71.208C77.832 71.208 76.0507 71.4533 74.6 71.944C73.1707 72.4133 72.0933 73.1387 71.368 74.12C70.664 75.08 70.312 76.296 70.312 77.768C70.312 79.24 70.6853 80.4667 71.432 81.448C72.2 82.408 73.2987 83.1333 74.728 83.624C76.1573 84.0933 77.896 84.328 79.944 84.328ZM78.088 89.896V65.704H81.928V89.896H78.088ZM108.505 89.32C106.755 89.32 105.145 89.032 103.673 88.456C102.201 87.88 100.921 87.08 99.8328 86.056C98.7448 85.0107 97.9021 83.7947 97.3048 82.408C96.7074 81 96.4088 79.464 96.4088 77.8C96.4088 76.136 96.7074 74.6107 97.3048 73.224C97.9021 71.816 98.7448 70.6 99.8328 69.576C100.921 68.5307 102.201 67.72 103.673 67.144C105.145 66.568 106.745 66.28 108.473 66.28C110.222 66.28 111.822 66.568 113.273 67.144C114.745 67.72 116.025 68.5307 117.113 69.576C118.201 70.6 119.043 71.816 119.641 73.224C120.238 74.6107 120.537 76.136 120.537 77.8C120.537 79.464 120.238 81 119.641 82.408C119.043 83.816 118.201 85.032 117.113 86.056C116.025 87.08 114.745 87.88 113.273 88.456C111.822 89.032 110.233 89.32 108.505 89.32ZM108.473 85.672C109.603 85.672 110.649 85.48 111.609 85.096C112.569 84.712 113.401 84.168 114.105 83.464C114.809 82.7387 115.353 81.9067 115.737 80.968C116.142 80.008 116.345 78.952 116.345 77.8C116.345 76.648 116.142 75.6027 115.737 74.664C115.353 73.704 114.809 72.872 114.105 72.168C113.401 71.4427 112.569 70.888 111.609 70.504C110.649 70.12 109.603 69.928 108.473 69.928C107.342 69.928 106.297 70.12 105.337 70.504C104.398 70.888 103.566 71.4427 102.841 72.168C102.137 72.872 101.582 73.704 101.177 74.664C100.793 75.6027 100.601 76.648 100.601 77.8C100.601 78.9307 100.793 79.976 101.177 80.936C101.582 81.896 102.137 82.7387 102.841 83.464C103.545 84.168 104.377 84.712 105.337 85.096C106.297 85.48 107.342 85.672 108.473 85.672ZM125.136 89V66.6H134.352C136.336 66.6 138.032 66.92 139.44 67.56C140.869 68.2 141.968 69.1173 142.736 70.312C143.504 71.5067 143.888 72.9253 143.888 74.568C143.888 76.2107 143.504 77.6293 142.736 78.824C141.968 80.0187 140.869 80.936 139.44 81.576C138.032 82.216 136.336 82.536 134.352 82.536H127.44L129.296 80.584V89H125.136ZM129.296 81.032L127.44 79.016H134.16C135.995 79.016 137.371 78.632 138.288 77.864C139.227 77.0747 139.696 75.976 139.696 74.568C139.696 73.1387 139.227 72.04 138.288 71.272C137.371 70.504 135.995 70.12 134.16 70.12H127.44L129.296 68.072V81.032ZM147.856 89V66.6H151.248L161.072 82.952H159.248L168.912 66.6H172.304L172.368 89H168.4L168.368 72.776H169.2L161.008 86.44H159.152L150.832 72.776H151.792V89H147.856ZM175.788 89L185.868 66.6H189.964L200.076 89H195.724L187.052 68.808H188.716L180.076 89H175.788ZM180.428 83.816L181.548 80.552H193.644L194.764 83.816H180.428ZM222.755 89.32C221.005 89.32 219.395 89.032 217.923 88.456C216.451 87.88 215.171 87.08 214.083 86.056C212.995 85.0107 212.152 83.7947 211.555 82.408C210.957 81 210.659 79.464 210.659 77.8C210.659 76.136 210.957 74.6107 211.555 73.224C212.152 71.816 212.995 70.6 214.083 69.576C215.171 68.5307 216.451 67.72 217.923 67.144C219.395 66.568 220.995 66.28 222.723 66.28C224.472 66.28 226.072 66.568 227.523 67.144C228.995 67.72 230.275 68.5307 231.363 69.576C232.451 70.6 233.293 71.816 233.891 73.224C234.488 74.6107 234.787 76.136 234.787 77.8C234.787 79.464 234.488 81 233.891 82.408C233.293 83.816 232.451 85.032 231.363 86.056C230.275 87.08 228.995 87.88 227.523 88.456C226.072 89.032 224.483 89.32 222.755 89.32ZM222.723 85.672C223.853 85.672 224.899 85.48 225.859 85.096C226.819 84.712 227.651 84.168 228.355 83.464C229.059 82.7387 229.603 81.9067 229.987 80.968C230.392 80.008 230.595 78.952 230.595 77.8C230.595 76.648 230.392 75.6027 229.987 74.664C229.603 73.704 229.059 72.872 228.355 72.168C227.651 71.4427 226.819 70.888 225.859 70.504C224.899 70.12 223.853 69.928 222.723 69.928C221.592 69.928 220.547 70.12 219.587 70.504C218.648 70.888 217.816 71.4427 217.091 72.168C216.387 72.872 215.832 73.704 215.427 74.664C215.043 75.6027 214.851 76.648 214.851 77.8C214.851 78.9307 215.043 79.976 215.427 80.936C215.832 81.896 216.387 82.7387 217.091 83.464C217.795 84.168 218.627 84.712 219.587 85.096C220.547 85.48 221.592 85.672 222.723 85.672ZM239.418 89V66.6H256.858V70.024H243.514V75.528H250.138C252.826 75.528 254.863 76.0933 256.25 77.224C257.658 78.3333 258.362 79.9547 258.362 82.088C258.362 84.2853 257.583 85.992 256.026 87.208C254.49 88.4027 252.314 89 249.498 89H239.418ZM243.514 85.8H249.274C250.874 85.8 252.09 85.4907 252.922 84.872C253.754 84.2533 254.17 83.3573 254.17 82.184C254.17 79.88 252.538 78.728 249.274 78.728H243.514V85.8ZM262.917 89V66.6H272.133C274.117 66.6 275.813 66.92 277.221 67.56C278.651 68.2 279.749 69.1173 280.517 70.312C281.285 71.5067 281.669 72.9253 281.669 74.568C281.669 76.2107 281.285 77.6293 280.517 78.824C279.749 80.0187 278.651 80.936 277.221 81.576C275.813 82.216 274.117 82.536 272.133 82.536H265.221L267.077 80.584V89H262.917ZM267.077 81.032L265.221 79.016H271.941C273.776 79.016 275.152 78.632 276.069 77.864C277.008 77.0747 277.477 75.976 277.477 74.568C277.477 73.1387 277.008 72.04 276.069 71.272C275.152 70.504 273.776 70.12 271.941 70.12H265.221L267.077 68.072V81.032ZM281.632 89L291.712 66.6H295.808L305.92 89H301.568L292.896 68.808H294.56L285.92 89H281.632ZM286.272 83.816L287.392 80.552H299.488L300.608 83.816H286.272ZM312.934 89V69.096L313.926 70.12H305.542V66.6H324.486V70.12H316.102L317.062 69.096V89H312.934ZM343.818 66.6H347.978V89H343.818V66.6ZM332.234 89H328.074V66.6H332.234V89ZM344.138 79.4H331.882V75.848H344.138V79.4ZM364.661 89.32C362.912 89.32 361.301 89.032 359.829 88.456C358.357 87.88 357.077 87.08 355.989 86.056C354.901 85.0107 354.058 83.7947 353.461 82.408C352.864 81 352.565 79.464 352.565 77.8C352.565 76.136 352.864 74.6107 353.461 73.224C354.058 71.816 354.901 70.6 355.989 69.576C357.077 68.5307 358.357 67.72 359.829 67.144C361.301 66.568 362.901 66.28 364.629 66.28C366.378 66.28 367.978 66.568 369.429 67.144C370.901 67.72 372.181 68.5307 373.269 69.576C374.357 70.6 375.2 71.816 375.797 73.224C376.394 74.6107 376.693 76.136 376.693 77.8C376.693 79.464 376.394 81 375.797 82.408C375.2 83.816 374.357 85.032 373.269 86.056C372.181 87.08 370.901 87.88 369.429 88.456C367.978 89.032 366.389 89.32 364.661 89.32ZM364.629 85.672C365.76 85.672 366.805 85.48 367.765 85.096C368.725 84.712 369.557 84.168 370.261 83.464C370.965 82.7387 371.509 81.9067 371.893 80.968C372.298 80.008 372.501 78.952 372.501 77.8C372.501 76.648 372.298 75.6027 371.893 74.664C371.509 73.704 370.965 72.872 370.261 72.168C369.557 71.4427 368.725 70.888 367.765 70.504C366.805 70.12 365.76 69.928 364.629 69.928C363.498 69.928 362.453 70.12 361.493 70.504C360.554 70.888 359.722 71.4427 358.997 72.168C358.293 72.872 357.738 73.704 357.333 74.664C356.949 75.6027 356.757 76.648 356.757 77.8C356.757 78.9307 356.949 79.976 357.333 80.936C357.738 81.896 358.293 82.7387 358.997 83.464C359.701 84.168 360.533 84.712 361.493 85.096C362.453 85.48 363.498 85.672 364.629 85.672ZM381.324 89V66.6H385.42V82.504L397.452 66.6H401.324V89H397.228V73.128L385.196 89H381.324ZM391.276 65.096C389.356 65.096 387.906 64.6907 386.924 63.88C385.964 63.0693 385.474 61.928 385.452 60.456H388.364C388.386 61.2453 388.642 61.8533 389.132 62.28C389.644 62.7067 390.359 62.92 391.276 62.92C392.194 62.92 392.908 62.7067 393.42 62.28C393.954 61.8533 394.231 61.2453 394.252 60.456H397.132C397.111 61.928 396.61 63.0693 395.628 63.88C394.647 64.6907 393.196 65.096 391.276 65.096ZM426.753 89.32C425.046 89.32 423.457 89.0427 421.985 88.488C420.534 87.912 419.265 87.112 418.177 86.088C417.11 85.0427 416.278 83.816 415.681 82.408C415.083 81 414.785 79.464 414.785 77.8C414.785 76.136 415.083 74.6 415.681 73.192C416.278 71.784 417.121 70.568 418.209 69.544C419.297 68.4987 420.566 67.6987 422.017 67.144C423.467 66.568 425.057 66.28 426.785 66.28C428.619 66.28 430.294 66.6 431.809 67.24C433.323 67.8587 434.603 68.7867 435.649 70.024L432.961 72.552C432.15 71.6773 431.243 71.0267 430.241 70.6C429.238 70.152 428.15 69.928 426.977 69.928C425.803 69.928 424.726 70.12 423.745 70.504C422.785 70.888 421.942 71.432 421.217 72.136C420.513 72.84 419.958 73.672 419.553 74.632C419.169 75.592 418.977 76.648 418.977 77.8C418.977 78.952 419.169 80.008 419.553 80.968C419.958 81.928 420.513 82.76 421.217 83.464C421.942 84.168 422.785 84.712 423.745 85.096C424.726 85.48 425.803 85.672 426.977 85.672C428.15 85.672 429.238 85.4587 430.241 85.032C431.243 84.584 432.15 83.912 432.961 83.016L435.649 85.576C434.603 86.792 433.323 87.72 431.809 88.36C430.294 89 428.609 89.32 426.753 89.32ZM439.543 89V66.6H449.559C452.076 66.6 454.039 67.1013 455.447 68.104C456.855 69.0853 457.559 70.504 457.559 72.36C457.559 74.1947 456.887 75.6133 455.543 76.616C454.199 77.5973 452.428 78.088 450.231 78.088L450.807 76.936C453.303 76.936 455.234 77.4373 456.599 78.44C457.964 79.4427 458.647 80.8933 458.647 82.792C458.647 84.7333 457.932 86.2587 456.503 87.368C455.074 88.456 452.962 89 450.167 89H439.543ZM443.639 85.8H450.039C451.49 85.8 452.588 85.5333 453.335 85C454.082 84.4453 454.455 83.6027 454.455 82.472C454.455 81.3413 454.082 80.52 453.335 80.008C452.588 79.4747 451.49 79.208 450.039 79.208H443.639V85.8ZM443.639 76.168H449.207C450.551 76.168 451.575 75.9013 452.279 75.368C452.983 74.8133 453.335 74.024 453.335 73C453.335 71.9333 452.983 71.1333 452.279 70.6C451.575 70.0667 450.551 69.8 449.207 69.8H443.639V76.168ZM476.097 89V81.832L477.122 82.76H470.562C468.684 82.76 467.063 82.4507 465.698 81.832C464.354 81.192 463.319 80.2853 462.594 79.112C461.868 77.9173 461.506 76.488 461.506 74.824C461.506 73.096 461.89 71.624 462.658 70.408C463.426 69.1707 464.514 68.232 465.922 67.592C467.33 66.9307 468.983 66.6 470.882 66.6H480.194V89H476.097ZM461.57 89L467.106 81H471.298L465.954 89H461.57ZM476.097 80.488V68.968L477.122 70.12H471.01C469.303 70.12 467.991 70.5147 467.074 71.304C466.178 72.072 465.73 73.224 465.73 74.76C465.73 76.232 466.156 77.3733 467.01 78.184C467.884 78.9733 469.164 79.368 470.85 79.368H477.122L476.097 80.488ZM484.303 86.792L485.647 83.752C486.607 84.4133 487.652 84.9253 488.783 85.288C489.935 85.6293 491.076 85.8107 492.207 85.832C493.338 85.8533 494.362 85.7253 495.279 85.448C496.218 85.1707 496.964 84.7547 497.519 84.2C498.074 83.6453 498.351 82.952 498.351 82.12C498.351 81.1173 497.935 80.3707 497.103 79.88C496.292 79.368 495.183 79.112 493.775 79.112H488.559V75.848H493.455C494.714 75.848 495.684 75.592 496.367 75.08C497.071 74.568 497.423 73.8747 497.423 73C497.423 72.2747 497.188 71.6773 496.719 71.208C496.271 70.7387 495.652 70.3867 494.863 70.152C494.095 69.9173 493.22 69.8107 492.239 69.832C491.279 69.832 490.276 69.9813 489.231 70.28C488.186 70.5573 487.194 70.9733 486.255 71.528L484.943 68.168C486.351 67.4213 487.823 66.8987 489.359 66.6C490.916 66.3013 492.42 66.216 493.871 66.344C495.322 66.472 496.623 66.8027 497.775 67.336C498.948 67.8693 499.887 68.5733 500.591 69.448C501.295 70.3013 501.647 71.3147 501.647 72.488C501.647 73.5547 501.359 74.504 500.783 75.336C500.228 76.1467 499.46 76.776 498.479 77.224C497.498 77.672 496.356 77.896 495.055 77.896L495.215 76.872C496.687 76.872 497.967 77.128 499.055 77.64C500.164 78.1307 501.018 78.8133 501.615 79.688C502.234 80.5627 502.543 81.576 502.543 82.728C502.543 83.816 502.266 84.7867 501.711 85.64C501.156 86.472 500.399 87.176 499.439 87.752C498.479 88.3067 497.38 88.7227 496.143 89C494.906 89.256 493.604 89.352 492.239 89.288C490.874 89.224 489.508 88.9893 488.143 88.584C486.799 88.1787 485.519 87.5813 484.303 86.792ZM507.324 89V66.6H511.42V82.504L523.452 66.6H527.324V89H523.228V73.128L511.196 89H507.324Z" fill="black"/>
<path d="M65.84 127.984L66.488 126.712C67.224 127.352 68.048 127.832 68.96 128.152C69.888 128.456 70.816 128.616 71.744 128.632C72.672 128.632 73.52 128.496 74.288 128.224C75.072 127.952 75.704 127.552 76.184 127.024C76.664 126.48 76.904 125.824 76.904 125.056C76.904 124.08 76.512 123.328 75.728 122.8C74.96 122.272 73.888 122.008 72.512 122.008H68.912V120.568H72.416C73.6 120.568 74.52 120.32 75.176 119.824C75.848 119.312 76.184 118.608 76.184 117.712C76.184 117.072 75.992 116.528 75.608 116.08C75.24 115.616 74.728 115.264 74.072 115.024C73.432 114.768 72.712 114.632 71.912 114.616C71.112 114.584 70.28 114.688 69.416 114.928C68.568 115.152 67.744 115.512 66.944 116.008L66.368 114.544C67.36 113.952 68.392 113.544 69.464 113.32C70.536 113.08 71.576 113 72.584 113.08C73.592 113.16 74.496 113.392 75.296 113.776C76.112 114.16 76.76 114.664 77.24 115.288C77.72 115.912 77.96 116.656 77.96 117.52C77.96 118.32 77.752 119.024 77.336 119.632C76.936 120.24 76.368 120.712 75.632 121.048C74.912 121.368 74.056 121.528 73.064 121.528L73.16 121C74.28 121 75.248 121.176 76.064 121.528C76.896 121.88 77.536 122.384 77.984 123.04C78.448 123.68 78.68 124.432 78.68 125.296C78.68 126.112 78.472 126.84 78.056 127.48C77.656 128.104 77.096 128.632 76.376 129.064C75.672 129.48 74.88 129.784 74 129.976C73.12 130.152 72.2 130.2 71.24 130.12C70.28 130.04 69.336 129.832 68.408 129.496C67.48 129.144 66.624 128.64 65.84 127.984ZM90.5058 130V127.216L90.4338 126.76V122.104C90.4338 121.032 90.1298 120.208 89.5218 119.632C88.9298 119.056 88.0418 118.768 86.8578 118.768C86.0418 118.768 85.2658 118.904 84.5298 119.176C83.7938 119.448 83.1698 119.808 82.6578 120.256L81.8898 118.984C82.5298 118.44 83.2978 118.024 84.1938 117.736C85.0898 117.432 86.0338 117.28 87.0258 117.28C88.6578 117.28 89.9138 117.688 90.7938 118.504C91.6898 119.304 92.1378 120.528 92.1378 122.176V130H90.5058ZM86.1618 130.12C85.2178 130.12 84.3938 129.968 83.6898 129.664C83.0018 129.344 82.4738 128.912 82.1058 128.368C81.7378 127.808 81.5538 127.168 81.5538 126.448C81.5538 125.792 81.7058 125.2 82.0098 124.672C82.3298 124.128 82.8418 123.696 83.5458 123.376C84.2658 123.04 85.2258 122.872 86.4258 122.872H90.7698V124.144H86.4738C85.2578 124.144 84.4098 124.36 83.9298 124.792C83.4658 125.224 83.2338 125.76 83.2338 126.4C83.2338 127.12 83.5138 127.696 84.0738 128.128C84.6338 128.56 85.4178 128.776 86.4258 128.776C87.3858 128.776 88.2098 128.56 88.8978 128.128C89.6018 127.68 90.1138 127.04 90.4338 126.208L90.8178 127.384C90.4978 128.216 89.9378 128.88 89.1378 129.376C88.3538 129.872 87.3618 130.12 86.1618 130.12ZM96.674 130V117.4H108.002V130H106.298V118.432L106.73 118.888H97.946L98.378 118.432V130H96.674ZM118.03 130.12C116.814 130.12 115.718 129.848 114.742 129.304C113.782 128.744 113.022 127.984 112.462 127.024C111.902 126.048 111.622 124.936 111.622 123.688C111.622 122.424 111.902 121.312 112.462 120.352C113.022 119.392 113.782 118.64 114.742 118.096C115.702 117.552 116.798 117.28 118.03 117.28C119.278 117.28 120.382 117.552 121.342 118.096C122.318 118.64 123.078 119.392 123.622 120.352C124.182 121.312 124.462 122.424 124.462 123.688C124.462 124.936 124.182 126.048 123.622 127.024C123.078 127.984 122.318 128.744 121.342 129.304C120.366 129.848 119.262 130.12 118.03 130.12ZM118.03 128.608C118.942 128.608 119.75 128.408 120.454 128.008C121.158 127.592 121.71 127.016 122.11 126.28C122.526 125.528 122.734 124.664 122.734 123.688C122.734 122.696 122.526 121.832 122.11 121.096C121.71 120.36 121.158 119.792 120.454 119.392C119.75 118.976 118.95 118.768 118.054 118.768C117.158 118.768 116.358 118.976 115.654 119.392C114.95 119.792 114.39 120.36 113.974 121.096C113.558 121.832 113.35 122.696 113.35 123.688C113.35 124.664 113.558 125.528 113.974 126.28C114.39 127.016 114.95 127.592 115.654 128.008C116.358 128.408 117.15 128.608 118.03 128.608ZM125.729 129.976L125.849 128.512C125.961 128.528 126.065 128.552 126.161 128.584C126.273 128.6 126.369 128.608 126.449 128.608C126.961 128.608 127.369 128.416 127.673 128.032C127.993 127.648 128.233 127.136 128.393 126.496C128.553 125.856 128.665 125.136 128.729 124.336C128.793 123.52 128.849 122.704 128.897 121.888L129.113 117.4H138.353V130H136.649V118.384L137.081 118.888H130.217L130.625 118.36L130.433 122.008C130.385 123.096 130.297 124.136 130.169 125.128C130.057 126.12 129.873 126.992 129.617 127.744C129.377 128.496 129.041 129.088 128.609 129.52C128.177 129.936 127.625 130.144 126.953 130.144C126.761 130.144 126.561 130.128 126.353 130.096C126.161 130.064 125.953 130.024 125.729 129.976ZM143.197 130V117.4H144.901V122.968H152.845V117.4H154.549V130H152.845V124.432H144.901V130H143.197ZM159.393 130V117.4H161.097V127.408L169.521 117.4H171.033V130H169.329V119.968L160.929 130H159.393ZM178.316 130V118.432L178.748 118.888H173.54V117.4H184.796V118.888H179.588L180.02 118.432V130H178.316ZM192.074 130.12C190.762 130.12 189.61 129.848 188.618 129.304C187.626 128.744 186.85 127.984 186.29 127.024C185.73 126.048 185.45 124.936 185.45 123.688C185.45 122.44 185.714 121.336 186.242 120.376C186.786 119.416 187.522 118.664 188.45 118.12C189.394 117.56 190.45 117.28 191.618 117.28C192.802 117.28 193.85 117.552 194.762 118.096C195.69 118.624 196.418 119.376 196.946 120.352C197.474 121.312 197.738 122.424 197.738 123.688C197.738 123.768 197.73 123.856 197.714 123.952C197.714 124.032 197.714 124.12 197.714 124.216H186.746V122.944H196.802L196.13 123.448C196.13 122.536 195.93 121.728 195.53 121.024C195.146 120.304 194.618 119.744 193.946 119.344C193.274 118.944 192.498 118.744 191.618 118.744C190.754 118.744 189.978 118.944 189.29 119.344C188.602 119.744 188.066 120.304 187.682 121.024C187.298 121.744 187.106 122.568 187.106 123.496V123.76C187.106 124.72 187.314 125.568 187.73 126.304C188.162 127.024 188.754 127.592 189.506 128.008C190.274 128.408 191.146 128.608 192.122 128.608C192.89 128.608 193.602 128.472 194.258 128.2C194.93 127.928 195.506 127.512 195.986 126.952L196.946 128.056C196.386 128.728 195.682 129.24 194.834 129.592C194.002 129.944 193.082 130.12 192.074 130.12ZM214.871 130.144C214.871 130.144 214.839 130.144 214.775 130.144C214.711 130.144 214.647 130.144 214.583 130.144C214.535 130.144 214.495 130.144 214.463 130.144C211.967 130.128 210.023 129.56 208.631 128.44C207.239 127.32 206.543 125.728 206.543 123.664C206.543 121.632 207.239 120.064 208.631 118.96C210.039 117.84 212.015 117.272 214.559 117.256C214.575 117.256 214.607 117.256 214.655 117.256C214.719 117.256 214.775 117.256 214.823 117.256C214.871 117.256 214.903 117.256 214.919 117.256C217.479 117.272 219.471 117.84 220.895 118.96C222.319 120.064 223.031 121.632 223.031 123.664C223.031 125.744 222.311 127.344 220.871 128.464C219.447 129.584 217.447 130.144 214.871 130.144ZM214.847 128.656C216.271 128.656 217.463 128.464 218.423 128.08C219.383 127.68 220.111 127.112 220.607 126.376C221.103 125.64 221.351 124.736 221.351 123.664C221.351 122.624 221.103 121.744 220.607 121.024C220.111 120.288 219.383 119.728 218.423 119.344C217.463 118.96 216.271 118.768 214.847 118.768C214.831 118.768 214.783 118.768 214.703 118.768C214.639 118.768 214.599 118.768 214.583 118.768C213.191 118.768 212.023 118.968 211.079 119.368C210.135 119.752 209.423 120.304 208.943 121.024C208.463 121.744 208.223 122.624 208.223 123.664C208.223 124.72 208.463 125.616 208.943 126.352C209.439 127.088 210.159 127.656 211.103 128.056C212.047 128.44 213.207 128.64 214.583 128.656C214.615 128.656 214.663 128.656 214.727 128.656C214.791 128.656 214.831 128.656 214.847 128.656ZM213.935 134.656V112.192H215.591V134.656H213.935ZM231.819 130.12C230.603 130.12 229.507 129.848 228.531 129.304C227.571 128.744 226.811 127.984 226.251 127.024C225.691 126.048 225.411 124.936 225.411 123.688C225.411 122.424 225.691 121.312 226.251 120.352C226.811 119.392 227.571 118.64 228.531 118.096C229.491 117.552 230.587 117.28 231.819 117.28C233.067 117.28 234.171 117.552 235.131 118.096C236.107 118.64 236.867 119.392 237.411 120.352C237.971 121.312 238.251 122.424 238.251 123.688C238.251 124.936 237.971 126.048 237.411 127.024C236.867 127.984 236.107 128.744 235.131 129.304C234.155 129.848 233.051 130.12 231.819 130.12ZM231.819 128.608C232.731 128.608 233.539 128.408 234.243 128.008C234.947 127.592 235.499 127.016 235.899 126.28C236.315 125.528 236.523 124.664 236.523 123.688C236.523 122.696 236.315 121.832 235.899 121.096C235.499 120.36 234.947 119.792 234.243 119.392C233.539 118.976 232.739 118.768 231.843 118.768C230.947 118.768 230.147 118.976 229.443 119.392C228.739 119.792 228.179 120.36 227.763 121.096C227.347 121.832 227.139 122.696 227.139 123.688C227.139 124.664 227.347 125.528 227.763 126.28C228.179 127.016 228.739 127.592 229.443 128.008C230.147 128.408 230.939 128.608 231.819 128.608ZM248.397 130.12C247.309 130.12 246.325 129.872 245.445 129.376C244.565 128.864 243.861 128.136 243.333 127.192C242.821 126.232 242.565 125.064 242.565 123.688C242.565 122.312 242.821 121.152 243.333 120.208C243.845 119.248 244.541 118.52 245.421 118.024C246.301 117.528 247.293 117.28 248.397 117.28C249.597 117.28 250.669 117.552 251.613 118.096C252.573 118.624 253.325 119.376 253.869 120.352C254.413 121.312 254.685 122.424 254.685 123.688C254.685 124.968 254.413 126.088 253.869 127.048C253.325 128.008 252.573 128.76 251.613 129.304C250.669 129.848 249.597 130.12 248.397 130.12ZM241.893 134.656V117.4H243.525V121.192L243.357 123.712L243.597 126.256V134.656H241.893ZM248.277 128.608C249.173 128.608 249.973 128.408 250.677 128.008C251.381 127.592 251.941 127.016 252.357 126.28C252.773 125.528 252.981 124.664 252.981 123.688C252.981 122.712 252.773 121.856 252.357 121.12C251.941 120.384 251.381 119.808 250.677 119.392C249.973 118.976 249.173 118.768 248.277 118.768C247.381 118.768 246.573 118.976 245.853 119.392C245.149 119.808 244.589 120.384 244.173 121.12C243.773 121.856 243.573 122.712 243.573 123.688C243.573 124.664 243.773 125.528 244.173 126.28C244.589 127.016 245.149 127.592 245.853 128.008C246.573 128.408 247.381 128.608 248.277 128.608ZM258.346 130V117.4H260.074L265.786 127.072H265.066L270.874 117.4H272.458V130H270.898V119.344L271.21 119.488L265.786 128.464H265.018L259.546 119.392L259.906 119.32V130H258.346ZM277.523 134.776C276.931 134.776 276.363 134.68 275.819 134.488C275.291 134.296 274.835 134.008 274.451 133.624L275.243 132.352C275.563 132.656 275.907 132.888 276.275 133.048C276.659 133.224 277.083 133.312 277.547 133.312C278.107 133.312 278.587 133.152 278.987 132.832C279.403 132.528 279.795 131.984 280.163 131.2L280.979 129.352L281.171 129.088L286.355 117.4H288.035L281.723 131.512C281.371 132.328 280.979 132.976 280.547 133.456C280.131 133.936 279.675 134.272 279.179 134.464C278.683 134.672 278.131 134.776 277.523 134.776ZM280.883 130.36L275.075 117.4H276.851L281.987 128.968L280.883 130.36ZM296.971 130V117.4H298.675V127.408L307.099 117.4H308.611V130H306.907V119.968L298.507 130H296.971ZM319.776 130V117.4H321.504L327.216 127.072H326.496L332.304 117.4H333.888V130H332.328V119.344L332.64 119.488L327.216 128.464H326.448L320.976 119.392L321.336 119.32V130H319.776ZM351.025 130V117.4H352.729V130H351.025ZM344.041 121.84C345.625 121.856 346.833 122.208 347.665 122.896C348.497 123.584 348.913 124.576 348.913 125.872C348.913 127.216 348.465 128.248 347.569 128.968C346.673 129.688 345.393 130.04 343.729 130.024L338.737 130V117.4H340.441V121.792L344.041 121.84ZM343.609 128.728C344.793 128.744 345.681 128.512 346.273 128.032C346.881 127.536 347.185 126.816 347.185 125.872C347.185 124.928 346.889 124.24 346.297 123.808C345.705 123.36 344.809 123.128 343.609 123.112L340.441 123.064V128.68L343.609 128.728ZM363.862 130V117.4H369.43C370.854 117.4 371.974 117.672 372.79 118.216C373.622 118.76 374.038 119.56 374.038 120.616C374.038 121.64 373.646 122.432 372.862 122.992C372.078 123.536 371.046 123.808 369.766 123.808L370.102 123.304C371.606 123.304 372.71 123.584 373.414 124.144C374.118 124.704 374.47 125.512 374.47 126.568C374.47 127.656 374.07 128.504 373.27 129.112C372.486 129.704 371.262 130 369.598 130H363.862ZM365.518 128.656H369.526C370.598 128.656 371.406 128.488 371.95 128.152C372.51 127.8 372.79 127.24 372.79 126.472C372.79 125.704 372.542 125.144 372.046 124.792C371.55 124.44 370.766 124.264 369.694 124.264H365.518V128.656ZM365.518 122.992H369.31C370.286 122.992 371.03 122.808 371.542 122.44C372.07 122.072 372.334 121.536 372.334 120.832C372.334 120.128 372.07 119.6 371.542 119.248C371.03 118.896 370.286 118.72 369.31 118.72H365.518V122.992ZM390.408 130.144C389.384 130.144 388.472 129.976 387.672 129.64C386.888 129.304 386.216 128.792 385.656 128.104C385.096 127.416 384.672 126.568 384.384 125.56C384.096 124.536 383.952 123.352 383.952 122.008C383.952 120.808 384.064 119.76 384.288 118.864C384.512 117.952 384.824 117.168 385.224 116.512C385.624 115.856 386.088 115.304 386.616 114.856C387.16 114.392 387.744 114.024 388.368 113.752C389.008 113.464 389.664 113.248 390.336 113.104L396 111.784L396.288 113.368L390.96 114.568C390.624 114.648 390.216 114.76 389.736 114.904C389.272 115.048 388.792 115.264 388.296 115.552C387.816 115.84 387.368 116.24 386.952 116.752C386.536 117.264 386.2 117.928 385.944 118.744C385.704 119.544 385.584 120.544 385.584 121.744C385.584 122 385.592 122.208 385.608 122.368C385.624 122.512 385.64 122.672 385.656 122.848C385.688 123.008 385.712 123.248 385.728 123.568L384.984 122.944C385.16 121.968 385.52 121.12 386.064 120.4C386.608 119.664 387.288 119.096 388.104 118.696C388.936 118.28 389.856 118.072 390.864 118.072C392.032 118.072 393.072 118.328 393.984 118.84C394.896 119.336 395.608 120.032 396.12 120.928C396.648 121.824 396.912 122.864 396.912 124.048C396.912 125.216 396.64 126.264 396.096 127.192C395.568 128.12 394.816 128.848 393.84 129.376C392.864 129.888 391.72 130.144 390.408 130.144ZM390.6 128.728C391.496 128.728 392.288 128.528 392.976 128.128C393.664 127.712 394.2 127.152 394.584 126.448C394.984 125.744 395.184 124.952 395.184 124.072C395.184 123.208 394.984 122.44 394.584 121.768C394.2 121.096 393.664 120.568 392.976 120.184C392.288 119.784 391.488 119.584 390.576 119.584C389.68 119.584 388.888 119.776 388.2 120.16C387.512 120.528 386.968 121.048 386.568 121.72C386.184 122.392 385.992 123.168 385.992 124.048C385.992 124.928 386.184 125.72 386.568 126.424C386.968 127.128 387.512 127.688 388.2 128.104C388.904 128.52 389.704 128.728 390.6 128.728ZM398.19 129.976L398.31 128.512C398.422 128.528 398.526 128.552 398.622 128.584C398.734 128.6 398.83 128.608 398.91 128.608C399.422 128.608 399.83 128.416 400.134 128.032C400.454 127.648 400.694 127.136 400.854 126.496C401.014 125.856 401.126 125.136 401.19 124.336C401.254 123.52 401.31 122.704 401.358 121.888L401.574 117.4H410.814V130H409.11V118.384L409.542 118.888H402.678L403.086 118.36L402.894 122.008C402.846 123.096 402.758 124.136 402.63 125.128C402.518 126.12 402.334 126.992 402.078 127.744C401.838 128.496 401.502 129.088 401.07 129.52C400.638 129.936 400.086 130.144 399.414 130.144C399.222 130.144 399.022 130.128 398.814 130.096C398.622 130.064 398.414 130.024 398.19 129.976ZM415.658 130V117.4H417.362V127.408L425.786 117.4H427.298V130H425.594V119.968L417.194 130H415.658ZM447.134 130L442.814 123.76L444.23 122.92L449.174 130H447.134ZM439.982 124.384V122.92H443.966V124.384H439.982ZM444.398 123.88L442.766 123.64L446.966 117.4H448.814L444.398 123.88ZM432.206 130H430.166L435.11 122.92L436.502 123.76L432.206 130ZM440.51 130H438.806V117.4H440.51V130ZM439.334 124.384H435.374V122.92H439.334V124.384ZM434.966 123.88L430.526 117.4H432.374L436.55 123.64L434.966 123.88ZM459.6 130V127.216L459.528 126.76V122.104C459.528 121.032 459.224 120.208 458.616 119.632C458.024 119.056 457.136 118.768 455.952 118.768C455.136 118.768 454.36 118.904 453.624 119.176C452.888 119.448 452.264 119.808 451.752 120.256L450.984 118.984C451.624 118.44 452.392 118.024 453.288 117.736C454.184 117.432 455.128 117.28 456.12 117.28C457.752 117.28 459.008 117.688 459.888 118.504C460.784 119.304 461.232 120.528 461.232 122.176V130H459.6ZM455.256 130.12C454.312 130.12 453.488 129.968 452.784 129.664C452.096 129.344 451.568 128.912 451.2 128.368C450.832 127.808 450.648 127.168 450.648 126.448C450.648 125.792 450.8 125.2 451.104 124.672C451.424 124.128 451.936 123.696 452.64 123.376C453.36 123.04 454.32 122.872 455.52 122.872H459.864V124.144H455.568C454.352 124.144 453.504 124.36 453.024 124.792C452.56 125.224 452.328 125.76 452.328 126.4C452.328 127.12 452.608 127.696 453.168 128.128C453.728 128.56 454.512 128.776 455.52 128.776C456.48 128.776 457.304 128.56 457.992 128.128C458.696 127.68 459.208 127.04 459.528 126.208L459.912 127.384C459.592 128.216 459.032 128.88 458.232 129.376C457.448 129.872 456.456 130.12 455.256 130.12ZM465.768 130V117.4H467.472V127.408L475.896 117.4H477.408V130H475.704V119.968L467.304 130H465.768ZM471.48 115.576C470.424 115.576 469.568 115.312 468.912 114.784C468.272 114.24 467.936 113.464 467.904 112.456H469.128C469.144 113.096 469.368 113.6 469.8 113.968C470.232 114.336 470.792 114.52 471.48 114.52C472.168 114.52 472.728 114.336 473.16 113.968C473.608 113.6 473.84 113.096 473.856 112.456H475.08C475.064 113.464 474.728 114.24 474.072 114.784C473.416 115.312 472.552 115.576 471.48 115.576ZM490.571 128.512L490.187 128.968V117.4H491.891V128.968L491.435 128.512H498.467L498.011 128.968V117.4H499.715V130H482.291V117.4H483.995V128.968L483.563 128.512H490.571ZM509.957 130.12C508.645 130.12 507.493 129.848 506.501 129.304C505.509 128.744 504.733 127.984 504.173 127.024C503.613 126.048 503.333 124.936 503.333 123.688C503.333 122.44 503.597 121.336 504.125 120.376C504.669 119.416 505.405 118.664 506.333 118.12C507.277 117.56 508.333 117.28 509.501 117.28C510.685 117.28 511.733 117.552 512.645 118.096C513.573 118.624 514.301 119.376 514.829 120.352C515.357 121.312 515.621 122.424 515.621 123.688C515.621 123.768 515.613 123.856 515.597 123.952C515.597 124.032 515.597 124.12 515.597 124.216H504.629V122.944H514.685L514.013 123.448C514.013 122.536 513.813 121.728 513.413 121.024C513.029 120.304 512.501 119.744 511.829 119.344C511.157 118.944 510.381 118.744 509.501 118.744C508.637 118.744 507.861 118.944 507.173 119.344C506.485 119.744 505.949 120.304 505.565 121.024C505.181 121.744 504.989 122.568 504.989 123.496V123.76C504.989 124.72 505.197 125.568 505.613 126.304C506.045 127.024 506.637 127.592 507.389 128.008C508.157 128.408 509.029 128.608 510.005 128.608C510.773 128.608 511.485 128.472 512.141 128.2C512.813 127.928 513.389 127.512 513.869 126.952L514.829 128.056C514.269 128.728 513.565 129.24 512.717 129.592C511.885 129.944 510.965 130.12 509.957 130.12ZM524.793 130.12C523.481 130.12 522.329 129.848 521.337 129.304C520.345 128.744 519.569 127.984 519.009 127.024C518.449 126.048 518.169 124.936 518.169 123.688C518.169 122.44 518.433 121.336 518.961 120.376C519.505 119.416 520.241 118.664 521.169 118.12C522.113 117.56 523.169 117.28 524.337 117.28C525.521 117.28 526.569 117.552 527.481 118.096C528.409 118.624 529.137 119.376 529.665 120.352C530.193 121.312 530.457 122.424 530.457 123.688C530.457 123.768 530.449 123.856 530.433 123.952C530.433 124.032 530.433 124.12 530.433 124.216H519.465V122.944H529.521L528.849 123.448C528.849 122.536 528.649 121.728 528.249 121.024C527.865 120.304 527.337 119.744 526.665 119.344C525.993 118.944 525.217 118.744 524.337 118.744C523.473 118.744 522.697 118.944 522.009 119.344C521.321 119.744 520.785 120.304 520.401 121.024C520.017 121.744 519.825 122.568 519.825 123.496V123.76C519.825 124.72 520.033 125.568 520.449 126.304C520.881 127.024 521.473 127.592 522.225 128.008C522.993 128.408 523.865 128.608 524.841 128.608C525.609 128.608 526.321 128.472 526.977 128.2C527.649 127.928 528.225 127.512 528.705 126.952L529.665 128.056C529.105 128.728 528.401 129.24 527.553 129.592C526.721 129.944 525.801 130.12 524.793 130.12ZM540.51 130V117.4H546.078C547.502 117.4 548.622 117.672 549.438 118.216C550.27 118.76 550.686 119.56 550.686 120.616C550.686 121.64 550.294 122.432 549.51 122.992C548.726 123.536 547.694 123.808 546.414 123.808L546.75 123.304C548.254 123.304 549.358 123.584 550.062 124.144C550.766 124.704 551.118 125.512 551.118 126.568C551.118 127.656 550.718 128.504 549.918 129.112C549.134 129.704 547.91 130 546.246 130H540.51ZM542.166 128.656H546.174C547.246 128.656 548.054 128.488 548.598 128.152C549.158 127.8 549.438 127.24 549.438 126.472C549.438 125.704 549.19 125.144 548.694 124.792C548.198 124.44 547.414 124.264 546.342 124.264H542.166V128.656ZM542.166 122.992H545.958C546.934 122.992 547.678 122.808 548.19 122.44C548.718 122.072 548.982 121.536 548.982 120.832C548.982 120.128 548.718 119.6 548.19 119.248C547.678 118.896 546.934 118.72 545.958 118.72H542.166V122.992ZM561.616 130.12C560.528 130.12 559.544 129.872 558.664 129.376C557.784 128.864 557.08 128.136 556.552 127.192C556.04 126.232 555.784 125.064 555.784 123.688C555.784 122.312 556.04 121.152 556.552 120.208C557.064 119.248 557.76 118.52 558.64 118.024C559.52 117.528 560.512 117.28 561.616 117.28C562.816 117.28 563.888 117.552 564.832 118.096C565.792 118.624 566.544 119.376 567.088 120.352C567.632 121.312 567.904 122.424 567.904 123.688C567.904 124.968 567.632 126.088 567.088 127.048C566.544 128.008 565.792 128.76 564.832 129.304C563.888 129.848 562.816 130.12 561.616 130.12ZM555.112 134.656V117.4H556.744V121.192L556.576 123.712L556.816 126.256V134.656H555.112ZM561.496 128.608C562.392 128.608 563.192 128.408 563.896 128.008C564.6 127.592 565.16 127.016 565.576 126.28C565.992 125.528 566.2 124.664 566.2 123.688C566.2 122.712 565.992 121.856 565.576 121.12C565.16 120.384 564.6 119.808 563.896 119.392C563.192 118.976 562.392 118.768 561.496 118.768C560.6 118.768 559.792 118.976 559.072 119.392C558.368 119.808 557.808 120.384 557.392 121.12C556.992 121.856 556.792 122.712 556.792 123.688C556.792 124.664 556.992 125.528 557.392 126.28C557.808 127.016 558.368 127.592 559.072 128.008C559.792 128.408 560.6 128.608 561.496 128.608ZM576.965 130.12C575.653 130.12 574.501 129.848 573.509 129.304C572.517 128.744 571.741 127.984 571.181 127.024C570.621 126.048 570.341 124.936 570.341 123.688C570.341 122.44 570.605 121.336 571.133 120.376C571.677 119.416 572.413 118.664 573.341 118.12C574.285 117.56 575.341 117.28 576.509 117.28C577.693 117.28 578.741 117.552 579.653 118.096C580.581 118.624 581.309 119.376 581.837 120.352C582.365 121.312 582.629 122.424 582.629 123.688C582.629 123.768 582.621 123.856 582.605 123.952C582.605 124.032 582.605 124.12 582.605 124.216H571.637V122.944H581.693L581.021 123.448C581.021 122.536 580.821 121.728 580.421 121.024C580.037 120.304 579.509 119.744 578.837 119.344C578.165 118.944 577.389 118.744 576.509 118.744C575.645 118.744 574.869 118.944 574.181 119.344C573.493 119.744 572.957 120.304 572.573 121.024C572.189 121.744 571.997 122.568 571.997 123.496V123.76C571.997 124.72 572.205 125.568 572.621 126.304C573.053 127.024 573.645 127.592 574.397 128.008C575.165 128.408 576.037 128.608 577.013 128.608C577.781 128.608 578.493 128.472 579.149 128.2C579.821 127.928 580.397 127.512 580.877 126.952L581.837 128.056C581.277 128.728 580.573 129.24 579.725 129.592C578.893 129.944 577.973 130.12 576.965 130.12ZM586.401 130V117.4H588.129L593.841 127.072H593.121L598.929 117.4H600.513V130H598.953V119.344L599.265 119.488L593.841 128.464H593.073L587.601 119.392L587.961 119.32V130H586.401ZM613.498 130V125.464L613.81 125.824H609.538C607.922 125.824 606.658 125.472 605.746 124.768C604.834 124.064 604.378 123.04 604.378 121.696C604.378 120.256 604.866 119.184 605.842 118.48C606.818 117.76 608.122 117.4 609.754 117.4H615.057V130H613.498ZM604.282 130L607.738 125.152H609.514L606.13 130H604.282ZM613.498 124.96V118.384L613.81 118.888H609.802C608.634 118.888 607.722 119.112 607.066 119.56C606.426 120.008 606.105 120.736 606.105 121.744C606.105 123.616 607.298 124.552 609.682 124.552H613.81L613.498 124.96ZM631.477 130.12C630.229 130.12 629.109 129.848 628.117 129.304C627.141 128.744 626.373 127.984 625.813 127.024C625.253 126.048 624.973 124.936 624.973 123.688C624.973 122.424 625.253 121.312 625.813 120.352C626.373 119.392 627.141 118.64 628.117 118.096C629.109 117.552 630.229 117.28 631.477 117.28C632.549 117.28 633.517 117.488 634.381 117.904C635.245 118.32 635.925 118.944 636.421 119.776L635.149 120.64C634.717 120 634.181 119.528 633.541 119.224C632.901 118.92 632.205 118.768 631.453 118.768C630.557 118.768 629.749 118.976 629.029 119.392C628.309 119.792 627.741 120.36 627.325 121.096C626.909 121.832 626.701 122.696 626.701 123.688C626.701 124.68 626.909 125.544 627.325 126.28C627.741 127.016 628.309 127.592 629.029 128.008C629.749 128.408 630.557 128.608 631.453 128.608C632.205 128.608 632.901 128.456 633.541 128.152C634.181 127.848 634.717 127.384 635.149 126.76L636.421 127.624C635.925 128.44 635.245 129.064 634.381 129.496C633.517 129.912 632.549 130.12 631.477 130.12ZM639.721 130V117.4H645.289C646.713 117.4 647.833 117.672 648.649 118.216C649.481 118.76 649.897 119.56 649.897 120.616C649.897 121.64 649.505 122.432 648.721 122.992C647.937 123.536 646.905 123.808 645.625 123.808L645.961 123.304C647.465 123.304 648.569 123.584 649.273 124.144C649.977 124.704 650.329 125.512 650.329 126.568C650.329 127.656 649.929 128.504 649.129 129.112C648.345 129.704 647.121 130 645.457 130H639.721ZM641.377 128.656H645.385C646.457 128.656 647.265 128.488 647.809 128.152C648.369 127.8 648.649 127.24 648.649 126.472C648.649 125.704 648.401 125.144 647.905 124.792C647.409 124.44 646.625 124.264 645.553 124.264H641.377V128.656ZM641.377 122.992H645.169C646.145 122.992 646.889 122.808 647.401 122.44C647.929 122.072 648.193 121.536 648.193 120.832C648.193 120.128 647.929 119.6 647.401 119.248C646.889 118.896 646.145 118.72 645.169 118.72H641.377V122.992ZM662.458 130V125.464L662.77 125.824H658.498C656.882 125.824 655.618 125.472 654.706 124.768C653.794 124.064 653.338 123.04 653.338 121.696C653.338 120.256 653.826 119.184 654.802 118.48C655.778 117.76 657.082 117.4 658.714 117.4H664.018V130H662.458ZM653.242 130L656.698 125.152H658.474L655.09 130H653.242ZM662.458 124.96V118.384L662.77 118.888H658.762C657.594 118.888 656.682 119.112 656.026 119.56C655.386 120.008 655.066 120.736 655.066 121.744C655.066 123.616 656.258 124.552 658.642 124.552H662.77L662.458 124.96ZM683.829 130L679.509 123.76L680.925 122.92L685.869 130H683.829ZM676.677 124.384V122.92H680.661V124.384H676.677ZM681.093 123.88L679.461 123.64L683.661 117.4H685.509L681.093 123.88ZM668.901 130H666.861L671.805 122.92L673.197 123.76L668.901 130ZM677.205 130H675.501V117.4H677.205V130ZM676.029 124.384H672.069V122.92H676.029V124.384ZM671.661 123.88L667.221 117.4H669.069L673.245 123.64L671.661 123.88ZM693.66 130.12C692.348 130.12 691.196 129.848 690.204 129.304C689.212 128.744 688.436 127.984 687.876 127.024C687.316 126.048 687.036 124.936 687.036 123.688C687.036 122.44 687.3 121.336 687.828 120.376C688.372 119.416 689.108 118.664 690.036 118.12C690.98 117.56 692.036 117.28 693.204 117.28C694.388 117.28 695.436 117.552 696.348 118.096C697.276 118.624 698.004 119.376 698.532 120.352C699.06 121.312 699.324 122.424 699.324 123.688C699.324 123.768 699.316 123.856 699.3 123.952C699.3 124.032 699.3 124.12 699.3 124.216H688.332V122.944H698.388L697.716 123.448C697.716 122.536 697.516 121.728 697.116 121.024C696.732 120.304 696.204 119.744 695.532 119.344C694.86 118.944 694.084 118.744 693.204 118.744C692.34 118.744 691.564 118.944 690.876 119.344C690.188 119.744 689.652 120.304 689.268 121.024C688.884 121.744 688.692 122.568 688.692 123.496V123.76C688.692 124.72 688.9 125.568 689.316 126.304C689.748 127.024 690.34 127.592 691.092 128.008C691.86 128.408 692.732 128.608 693.708 128.608C694.476 128.608 695.188 128.472 695.844 128.2C696.516 127.928 697.092 127.512 697.572 126.952L698.532 128.056C697.972 128.728 697.268 129.24 696.42 129.592C695.588 129.944 694.668 130.12 693.66 130.12ZM703.096 130V117.4H704.824L710.536 127.072H709.816L715.624 117.4H717.208V130H715.648V119.344L715.96 119.488L710.536 128.464H709.768L704.296 119.392L704.656 119.32V130H703.096ZM727.337 130.12C726.089 130.12 724.969 129.848 723.977 129.304C723.001 128.744 722.233 127.984 721.673 127.024C721.113 126.048 720.833 124.936 720.833 123.688C720.833 122.424 721.113 121.312 721.673 120.352C722.233 119.392 723.001 118.64 723.977 118.096C724.969 117.552 726.089 117.28 727.337 117.28C728.409 117.28 729.377 117.488 730.241 117.904C731.105 118.32 731.785 118.944 732.281 119.776L731.009 120.64C730.577 120 730.041 119.528 729.401 119.224C728.761 118.92 728.065 118.768 727.313 118.768C726.417 118.768 725.609 118.976 724.889 119.392C724.169 119.792 723.601 120.36 723.185 121.096C722.769 121.832 722.561 122.696 722.561 123.688C722.561 124.68 722.769 125.544 723.185 126.28C723.601 127.016 724.169 127.592 724.889 128.008C725.609 128.408 726.417 128.608 727.313 128.608C728.065 128.608 728.761 128.456 729.401 128.152C730.041 127.848 730.577 127.384 731.009 126.76L732.281 127.624C731.785 128.44 731.105 129.064 730.241 129.496C729.377 129.912 728.409 130.12 727.337 130.12ZM743.294 130V125.464L743.606 125.824H739.334C737.718 125.824 736.454 125.472 735.542 124.768C734.63 124.064 734.174 123.04 734.174 121.696C734.174 120.256 734.662 119.184 735.638 118.48C736.614 117.76 737.918 117.4 739.55 117.4H744.854V130H743.294ZM734.078 130L737.534 125.152H739.31L735.926 130H734.078ZM743.294 124.96V118.384L743.606 118.888H739.598C738.43 118.888 737.518 119.112 736.862 119.56C736.222 120.008 735.902 120.736 735.902 121.744C735.902 123.616 737.094 124.552 739.478 124.552H743.606L743.294 124.96ZM761.274 130.12C760.026 130.12 758.906 129.848 757.914 129.304C756.938 128.744 756.17 127.984 755.61 127.024C755.05 126.048 754.77 124.936 754.77 123.688C754.77 122.424 755.05 121.312 755.61 120.352C756.17 119.392 756.938 118.64 757.914 118.096C758.906 117.552 760.026 117.28 761.274 117.28C762.346 117.28 763.314 117.488 764.178 117.904C765.042 118.32 765.722 118.944 766.218 119.776L764.946 120.64C764.514 120 763.978 119.528 763.338 119.224C762.698 118.92 762.002 118.768 761.25 118.768C760.354 118.768 759.546 118.976 758.826 119.392C758.106 119.792 757.538 120.36 757.122 121.096C756.706 121.832 756.498 122.696 756.498 123.688C756.498 124.68 756.706 125.544 757.122 126.28C757.538 127.016 758.106 127.592 758.826 128.008C759.546 128.408 760.354 128.608 761.25 128.608C762.002 128.608 762.698 128.456 763.338 128.152C763.978 127.848 764.514 127.384 764.946 126.76L766.218 127.624C765.722 128.44 765.042 129.064 764.178 129.496C763.314 129.912 762.346 130.12 761.274 130.12ZM67.832 159V142.2H74.816C76.592 142.2 77.984 142.568 78.992 143.304C80.016 144.024 80.528 145.088 80.528 146.496C80.528 147.888 80.04 148.944 79.064 149.664C78.088 150.368 76.808 150.72 75.224 150.72L75.632 150.12C77.504 150.12 78.928 150.488 79.904 151.224C80.88 151.96 81.368 153.04 81.368 154.464C81.368 155.904 80.856 157.024 79.832 157.824C78.824 158.608 77.304 159 75.272 159H67.832ZM69.584 157.584H75.272C76.696 157.584 77.776 157.32 78.512 156.792C79.248 156.264 79.616 155.448 79.616 154.344C79.616 153.256 79.248 152.456 78.512 151.944C77.776 151.432 76.696 151.176 75.272 151.176H69.584V157.584ZM69.584 149.808H74.72C76.016 149.808 77.008 149.552 77.696 149.04C78.4 148.512 78.752 147.736 78.752 146.712C78.752 145.688 78.4 144.92 77.696 144.408C77.008 143.88 76.016 143.616 74.72 143.616H69.584V149.808ZM93.2246 159V156.216L93.1526 155.76V151.104C93.1526 150.032 92.8486 149.208 92.2406 148.632C91.6486 148.056 90.7606 147.768 89.5766 147.768C88.7606 147.768 87.9846 147.904 87.2486 148.176C86.5126 148.448 85.8886 148.808 85.3766 149.256L84.6086 147.984C85.2486 147.44 86.0166 147.024 86.9126 146.736C87.8086 146.432 88.7526 146.28 89.7446 146.28C91.3766 146.28 92.6326 146.688 93.5126 147.504C94.4086 148.304 94.8566 149.528 94.8566 151.176V159H93.2246ZM88.8806 159.12C87.9366 159.12 87.1126 158.968 86.4086 158.664C85.7206 158.344 85.1926 157.912 84.8246 157.368C84.4566 156.808 84.2726 156.168 84.2726 155.448C84.2726 154.792 84.4246 154.2 84.7286 153.672C85.0486 153.128 85.5606 152.696 86.2646 152.376C86.9846 152.04 87.9446 151.872 89.1446 151.872H93.4886V153.144H89.1926C87.9766 153.144 87.1286 153.36 86.6486 153.792C86.1846 154.224 85.9526 154.76 85.9526 155.4C85.9526 156.12 86.2326 156.696 86.7926 157.128C87.3526 157.56 88.1366 157.776 89.1446 157.776C90.1046 157.776 90.9286 157.56 91.6166 157.128C92.3206 156.68 92.8326 156.04 93.1526 155.208L93.5366 156.384C93.2166 157.216 92.6566 157.88 91.8566 158.376C91.0726 158.872 90.0806 159.12 88.8806 159.12ZM99.3928 159V146.4H101.121L106.833 156.072H106.113L111.921 146.4H113.505V159H111.945V148.344L112.257 148.488L106.833 157.464H106.065L100.593 148.392L100.953 148.32V159H99.3928ZM118.354 159V146.4H120.058V156.408L128.482 146.4H129.994V159H128.29V148.968L119.89 159H118.354Z" fill="black"/>
<rect x="65" y="211" width="273" height="57" rx="28.5" fill="#AB0000"/>
<path d="M100.48 245.12C99.4267 245.12 98.4533 244.947 97.56 244.6C96.6667 244.24 95.8933 243.74 95.24 243.1C94.5867 242.46 94.0733 241.707 93.7 240.84C93.34 239.973 93.16 239.027 93.16 238C93.16 236.973 93.34 236.027 93.7 235.16C94.0733 234.293 94.5867 233.54 95.24 232.9C95.9067 232.26 96.6867 231.767 97.58 231.42C98.4733 231.06 99.4467 230.88 100.5 230.88C101.513 230.88 102.467 231.053 103.36 231.4C104.253 231.733 105.007 232.24 105.62 232.92L104.68 233.86C104.107 233.273 103.473 232.853 102.78 232.6C102.087 232.333 101.34 232.2 100.54 232.2C99.7 232.2 98.92 232.347 98.2 232.64C97.48 232.92 96.8533 233.327 96.32 233.86C95.7867 234.38 95.3667 234.993 95.06 235.7C94.7667 236.393 94.62 237.16 94.62 238C94.62 238.84 94.7667 239.613 95.06 240.32C95.3667 241.013 95.7867 241.627 96.32 242.16C96.8533 242.68 97.48 243.087 98.2 243.38C98.92 243.66 99.7 243.8 100.54 243.8C101.34 243.8 102.087 243.667 102.78 243.4C103.473 243.133 104.107 242.707 104.68 242.12L105.62 243.06C105.007 243.74 104.253 244.253 103.36 244.6C102.467 244.947 101.507 245.12 100.48 245.12ZM108.336 245V234.5H112.976C114.163 234.5 115.096 234.727 115.776 235.18C116.47 235.633 116.816 236.3 116.816 237.18C116.816 238.033 116.49 238.693 115.836 239.16C115.183 239.613 114.323 239.84 113.256 239.84L113.536 239.42C114.79 239.42 115.71 239.653 116.296 240.12C116.883 240.587 117.176 241.26 117.176 242.14C117.176 243.047 116.843 243.753 116.176 244.26C115.523 244.753 114.503 245 113.116 245H108.336ZM109.716 243.88H113.056C113.95 243.88 114.623 243.74 115.076 243.46C115.543 243.167 115.776 242.7 115.776 242.06C115.776 241.42 115.57 240.953 115.156 240.66C114.743 240.367 114.09 240.22 113.196 240.22H109.716V243.88ZM109.716 239.16H112.876C113.69 239.16 114.31 239.007 114.736 238.7C115.176 238.393 115.396 237.947 115.396 237.36C115.396 236.773 115.176 236.333 114.736 236.04C114.31 235.747 113.69 235.6 112.876 235.6H109.716V239.16ZM127.284 245V241.22L127.544 241.52H123.984C122.638 241.52 121.584 241.227 120.824 240.64C120.064 240.053 119.684 239.2 119.684 238.08C119.684 236.88 120.091 235.987 120.904 235.4C121.718 234.8 122.804 234.5 124.164 234.5H128.584V245H127.284ZM119.604 245L122.484 240.96H123.964L121.144 245H119.604ZM127.284 240.8V235.32L127.544 235.74H124.204C123.231 235.74 122.471 235.927 121.924 236.3C121.391 236.673 121.124 237.28 121.124 238.12C121.124 239.68 122.118 240.46 124.104 240.46H127.544L127.284 240.8ZM145.093 245L141.493 239.8L142.673 239.1L146.793 245H145.093ZM139.133 240.32V239.1H142.453V240.32H139.133ZM142.813 239.9L141.453 239.7L144.953 234.5H146.493L142.813 239.9ZM132.653 245H130.953L135.073 239.1L136.233 239.8L132.653 245ZM139.573 245H138.153V234.5H139.573V245ZM138.593 240.32H135.293V239.1H138.593V240.32ZM134.953 239.9L131.253 234.5H132.793L136.273 239.7L134.953 239.9ZM149.157 245V234.5H150.577V242.84L157.597 234.5H158.857V245H157.437V236.64L150.437 245H149.157ZM164.926 245V235.36L165.286 235.74H160.946V234.5H170.326V235.74H165.986L166.346 235.36V245H164.926ZM176.391 245.1C175.298 245.1 174.338 244.873 173.511 244.42C172.684 243.953 172.038 243.32 171.571 242.52C171.104 241.707 170.871 240.78 170.871 239.74C170.871 238.7 171.091 237.78 171.531 236.98C171.984 236.18 172.598 235.553 173.371 235.1C174.158 234.633 175.038 234.4 176.011 234.4C176.998 234.4 177.871 234.627 178.631 235.08C179.404 235.52 180.011 236.147 180.451 236.96C180.891 237.76 181.111 238.687 181.111 239.74C181.111 239.807 181.104 239.88 181.091 239.96C181.091 240.027 181.091 240.1 181.091 240.18H171.951V239.12H180.331L179.771 239.54C179.771 238.78 179.604 238.107 179.271 237.52C178.951 236.92 178.511 236.453 177.951 236.12C177.391 235.787 176.744 235.62 176.011 235.62C175.291 235.62 174.644 235.787 174.071 236.12C173.498 236.453 173.051 236.92 172.731 237.52C172.411 238.12 172.251 238.807 172.251 239.58V239.8C172.251 240.6 172.424 241.307 172.771 241.92C173.131 242.52 173.624 242.993 174.251 243.34C174.891 243.673 175.618 243.84 176.431 243.84C177.071 243.84 177.664 243.727 178.211 243.5C178.771 243.273 179.251 242.927 179.651 242.46L180.451 243.38C179.984 243.94 179.398 244.367 178.691 244.66C177.998 244.953 177.231 245.1 176.391 245.1ZM188.654 245.1C187.614 245.1 186.681 244.873 185.854 244.42C185.041 243.953 184.401 243.32 183.934 242.52C183.468 241.707 183.234 240.78 183.234 239.74C183.234 238.687 183.468 237.76 183.934 236.96C184.401 236.16 185.041 235.533 185.854 235.08C186.681 234.627 187.614 234.4 188.654 234.4C189.548 234.4 190.354 234.573 191.074 234.92C191.794 235.267 192.361 235.787 192.774 236.48L191.714 237.2C191.354 236.667 190.908 236.273 190.374 236.02C189.841 235.767 189.261 235.64 188.634 235.64C187.888 235.64 187.214 235.813 186.614 236.16C186.014 236.493 185.541 236.967 185.194 237.58C184.848 238.193 184.674 238.913 184.674 239.74C184.674 240.567 184.848 241.287 185.194 241.9C185.541 242.513 186.014 242.993 186.614 243.34C187.214 243.673 187.888 243.84 188.634 243.84C189.261 243.84 189.841 243.713 190.374 243.46C190.908 243.207 191.354 242.82 191.714 242.3L192.774 243.02C192.361 243.7 191.794 244.22 191.074 244.58C190.354 244.927 189.548 245.1 188.654 245.1ZM200.044 238.2C201.364 238.213 202.364 238.507 203.044 239.08C203.737 239.653 204.084 240.48 204.084 241.56C204.084 242.68 203.711 243.54 202.964 244.14C202.231 244.74 201.164 245.033 199.764 245.02L195.524 245V234.5H196.944V238.16L200.044 238.2ZM199.684 243.94C200.657 243.953 201.391 243.76 201.884 243.36C202.391 242.947 202.644 242.347 202.644 241.56C202.644 240.773 202.397 240.2 201.904 239.84C201.411 239.467 200.671 239.273 199.684 239.26L196.944 239.22V243.9L199.684 243.94ZM216.428 245.1C215.388 245.1 214.454 244.873 213.628 244.42C212.814 243.953 212.174 243.32 211.708 242.52C211.241 241.707 211.008 240.78 211.008 239.74C211.008 238.687 211.241 237.76 211.708 236.96C212.174 236.16 212.814 235.533 213.628 235.08C214.454 234.627 215.388 234.4 216.428 234.4C217.321 234.4 218.128 234.573 218.848 234.92C219.568 235.267 220.134 235.787 220.548 236.48L219.488 237.2C219.128 236.667 218.681 236.273 218.148 236.02C217.614 235.767 217.034 235.64 216.408 235.64C215.661 235.64 214.988 235.813 214.388 236.16C213.788 236.493 213.314 236.967 212.968 237.58C212.621 238.193 212.448 238.913 212.448 239.74C212.448 240.567 212.621 241.287 212.968 241.9C213.314 242.513 213.788 242.993 214.388 243.34C214.988 243.673 215.661 243.84 216.408 243.84C217.034 243.84 217.614 243.713 218.148 243.46C218.681 243.207 219.128 242.82 219.488 242.3L220.548 243.02C220.134 243.7 219.568 244.22 218.848 244.58C218.128 244.927 217.321 245.1 216.428 245.1ZM228.532 245V234.5H229.952V239.14H236.572V234.5H237.992V245H236.572V240.36H229.952V245H228.532ZM248.548 245V242.68L248.488 242.3V238.42C248.488 237.527 248.234 236.84 247.728 236.36C247.234 235.88 246.494 235.64 245.508 235.64C244.828 235.64 244.181 235.753 243.568 235.98C242.954 236.207 242.434 236.507 242.008 236.88L241.368 235.82C241.901 235.367 242.541 235.02 243.288 234.78C244.034 234.527 244.821 234.4 245.648 234.4C247.008 234.4 248.054 234.74 248.788 235.42C249.534 236.087 249.908 237.107 249.908 238.48V245H248.548ZM244.928 245.1C244.141 245.1 243.454 244.973 242.868 244.72C242.294 244.453 241.854 244.093 241.548 243.64C241.241 243.173 241.088 242.64 241.088 242.04C241.088 241.493 241.214 241 241.468 240.56C241.734 240.107 242.161 239.747 242.748 239.48C243.348 239.2 244.148 239.06 245.148 239.06H248.768V240.12H245.188C244.174 240.12 243.468 240.3 243.068 240.66C242.681 241.02 242.488 241.467 242.488 242C242.488 242.6 242.721 243.08 243.188 243.44C243.654 243.8 244.308 243.98 245.148 243.98C245.948 243.98 246.634 243.8 247.208 243.44C247.794 243.067 248.221 242.533 248.488 241.84L248.808 242.82C248.541 243.513 248.074 244.067 247.408 244.48C246.754 244.893 245.928 245.1 244.928 245.1ZM253.688 245V234.5H255.128L259.888 242.56H259.288L264.128 234.5H265.448V245H264.148V236.12L264.408 236.24L259.888 243.72H259.248L254.688 236.16L254.988 236.1V245H253.688ZM269.489 245V234.5H270.909V242.84L277.929 234.5H279.189V245H277.769V236.64L270.769 245H269.489Z" fill="white"/>
<line x1="293" y1="231.5" x2="316" y2="231.5" stroke="white"/>
<path d="M293.5 231V244" stroke="white"/>
<line x1="294" y1="243.5" x2="316" y2="243.5" stroke="white"/>
<path d="M315.5 231V243" stroke="white"/>
<line x1="294.268" y1="231.578" x2="305.268" y2="238.578" stroke="white"/>
<line x1="304.713" y1="238.59" x2="314.713" y2="231.59" stroke="white"/>
<path d="M293.757 242.563L303 237" stroke="white"/>
<path d="M307 237L315 243" stroke="white"/>
<path d="M1123.9 77V64.56L1124.52 65.2H1119.28V63H1131.12V65.2H1125.88L1126.48 64.56V77H1123.9ZM1135.76 68.82H1142.72V70.96H1135.76V68.82ZM1135.96 74.82H1143.86V77H1133.36V63H1143.58V65.18H1135.96V74.82ZM1146.5 77.2C1146.27 77.2 1146.05 77.18 1145.82 77.14C1145.59 77.1 1145.35 77.0533 1145.08 77L1145.26 74.74C1145.45 74.7933 1145.65 74.82 1145.86 74.82C1146.42 74.82 1146.87 74.5933 1147.2 74.14C1147.53 73.6733 1147.77 72.9933 1147.92 72.1C1148.07 71.2067 1148.17 70.1067 1148.22 68.8L1148.42 63H1158.72V77H1156.16V64.56L1156.76 65.2H1150.1L1150.66 64.54L1150.52 68.7C1150.48 70.0867 1150.39 71.3067 1150.24 72.36C1150.09 73.4133 1149.87 74.3 1149.56 75.02C1149.27 75.7267 1148.87 76.2667 1148.38 76.64C1147.89 77.0133 1147.26 77.2 1146.5 77.2ZM1165.06 68.82H1172.02V70.96H1165.06V68.82ZM1165.26 74.82H1173.16V77H1162.66V63H1172.88V65.18H1165.26V74.82ZM1183.18 76.1C1181.42 76.1 1179.92 75.86 1178.68 75.38C1177.45 74.9 1176.51 74.2067 1175.86 73.3C1175.2 72.38 1174.88 71.2733 1174.88 69.98C1174.88 68.66 1175.2 67.5467 1175.86 66.64C1176.51 65.7333 1177.45 65.04 1178.68 64.56C1179.92 64.08 1181.42 63.84 1183.18 63.84C1183.2 63.84 1183.26 63.84 1183.36 63.84C1183.46 63.84 1183.56 63.84 1183.66 63.84C1183.76 63.84 1183.82 63.84 1183.84 63.84C1185.58 63.84 1187.07 64.08 1188.3 64.56C1189.52 65.04 1190.46 65.74 1191.1 66.66C1191.74 67.5667 1192.06 68.6733 1192.06 69.98C1192.06 71.26 1191.74 72.36 1191.1 73.28C1190.47 74.2 1189.55 74.9 1188.34 75.38C1187.14 75.86 1185.67 76.1 1183.94 76.1C1183.91 76.1 1183.84 76.1 1183.72 76.1C1183.61 76.1 1183.5 76.1 1183.38 76.1C1183.27 76.1 1183.2 76.1 1183.18 76.1ZM1183.44 74.08C1183.46 74.08 1183.5 74.08 1183.56 74.08C1183.61 74.08 1183.64 74.08 1183.66 74.08C1184.95 74.0667 1186.03 73.9067 1186.9 73.6C1187.78 73.2933 1188.44 72.84 1188.88 72.24C1189.33 71.6267 1189.56 70.8667 1189.56 69.96C1189.56 69.0533 1189.33 68.3 1188.88 67.7C1188.42 67.1 1187.76 66.6467 1186.9 66.34C1186.03 66.0333 1184.96 65.88 1183.7 65.88C1183.68 65.88 1183.64 65.88 1183.58 65.88C1183.51 65.88 1183.46 65.88 1183.44 65.88C1182.12 65.88 1181 66.0333 1180.1 66.34C1179.2 66.6333 1178.53 67.0867 1178.08 67.7C1177.64 68.3 1177.42 69.06 1177.42 69.98C1177.42 70.9 1177.65 71.6667 1178.12 72.28C1178.6 72.88 1179.28 73.3333 1180.18 73.64C1181.07 73.9333 1182.16 74.08 1183.44 74.08ZM1182.28 77.56V62.44H1184.68V77.56H1182.28ZM1201.29 77.2C1200.19 77.2 1199.19 77.02 1198.27 76.66C1197.35 76.3 1196.55 75.8 1195.87 75.16C1195.19 74.5067 1194.66 73.7467 1194.29 72.88C1193.91 72 1193.73 71.04 1193.73 70C1193.73 68.96 1193.91 68.0067 1194.29 67.14C1194.66 66.26 1195.19 65.5 1195.87 64.86C1196.55 64.2067 1197.35 63.7 1198.27 63.34C1199.19 62.98 1200.19 62.8 1201.27 62.8C1202.36 62.8 1203.36 62.98 1204.27 63.34C1205.19 63.7 1205.99 64.2067 1206.67 64.86C1207.35 65.5 1207.87 66.26 1208.25 67.14C1208.62 68.0067 1208.81 68.96 1208.81 70C1208.81 71.04 1208.62 72 1208.25 72.88C1207.87 73.76 1207.35 74.52 1206.67 75.16C1205.99 75.8 1205.19 76.3 1204.27 76.66C1203.36 77.02 1202.37 77.2 1201.29 77.2ZM1201.27 74.92C1201.97 74.92 1202.63 74.8 1203.23 74.56C1203.83 74.32 1204.35 73.98 1204.79 73.54C1205.23 73.0867 1205.57 72.5667 1205.81 71.98C1206.06 71.38 1206.19 70.72 1206.19 70C1206.19 69.28 1206.06 68.6267 1205.81 68.04C1205.57 67.44 1205.23 66.92 1204.79 66.48C1204.35 66.0267 1203.83 65.68 1203.23 65.44C1202.63 65.2 1201.97 65.08 1201.27 65.08C1200.56 65.08 1199.91 65.2 1199.31 65.44C1198.72 65.68 1198.2 66.0267 1197.75 66.48C1197.31 66.92 1196.96 67.44 1196.71 68.04C1196.47 68.6267 1196.35 69.28 1196.35 70C1196.35 70.7067 1196.47 71.36 1196.71 71.96C1196.96 72.56 1197.31 73.0867 1197.75 73.54C1198.19 73.98 1198.71 74.32 1199.31 74.56C1199.91 74.8 1200.56 74.92 1201.27 74.92ZM1221.52 63H1224.12V77H1221.52V63ZM1214.28 77H1211.68V63H1214.28V77ZM1221.72 71H1214.06V68.78H1221.72V71Z" fill="#595757"/>
<path d="M1002.84 113.5V104.5H1004.98V113.5H1002.84ZM999.3 110V108H1008.52V110H999.3ZM1014.69 116.2C1013.7 116.2 1012.73 116.06 1011.79 115.78C1010.85 115.487 1010.07 115.087 1009.43 114.58L1010.55 112.56C1011.05 112.973 1011.67 113.307 1012.39 113.56C1013.11 113.813 1013.86 113.94 1014.65 113.94C1015.58 113.94 1016.31 113.753 1016.83 113.38C1017.35 112.993 1017.61 112.473 1017.61 111.82C1017.61 111.18 1017.37 110.673 1016.89 110.3C1016.41 109.927 1015.63 109.74 1014.57 109.74H1013.29V107.96L1017.29 103.2L1017.63 104.18H1010.11V102H1019.65V103.74L1015.65 108.5L1014.29 107.7H1015.07C1016.79 107.7 1018.07 108.087 1018.93 108.86C1019.79 109.62 1020.23 110.6 1020.23 111.8C1020.23 112.587 1020.03 113.313 1019.63 113.98C1019.23 114.647 1018.61 115.187 1017.79 115.6C1016.97 116 1015.94 116.2 1014.69 116.2ZM1024.07 116L1029.85 103.04L1030.53 104.2H1022.59L1023.83 102.94V106.58H1021.41V102H1032.29V103.74L1026.85 116H1024.07ZM1038.19 116.2C1037.2 116.2 1036.23 116.06 1035.29 115.78C1034.35 115.487 1033.57 115.087 1032.93 114.58L1034.03 112.56C1034.53 112.973 1035.15 113.307 1035.87 113.56C1036.6 113.813 1037.36 113.94 1038.15 113.94C1039.07 113.94 1039.79 113.747 1040.31 113.36C1040.84 112.973 1041.11 112.453 1041.11 111.8C1041.11 111.36 1040.99 110.973 1040.77 110.64C1040.55 110.307 1040.17 110.053 1039.61 109.88C1039.06 109.707 1038.31 109.62 1037.35 109.62H1033.97L1034.69 102H1042.91V104.18H1035.65L1037.01 102.94L1036.47 108.64L1035.11 107.42H1037.93C1039.31 107.42 1040.43 107.607 1041.27 107.98C1042.12 108.34 1042.74 108.847 1043.13 109.5C1043.53 110.14 1043.73 110.873 1043.73 111.7C1043.73 112.513 1043.53 113.26 1043.13 113.94C1042.73 114.62 1042.11 115.167 1041.29 115.58C1040.47 115.993 1039.44 116.2 1038.19 116.2ZM1044.95 116V114.26L1050.51 108.98C1050.98 108.54 1051.32 108.153 1051.55 107.82C1051.78 107.487 1051.92 107.18 1051.99 106.9C1052.07 106.607 1052.11 106.333 1052.11 106.08C1052.11 105.44 1051.89 104.947 1051.45 104.6C1051.01 104.24 1050.36 104.06 1049.51 104.06C1048.83 104.06 1048.21 104.18 1047.65 104.42C1047.1 104.66 1046.63 105.027 1046.23 105.52L1044.41 104.12C1044.96 103.387 1045.69 102.82 1046.61 102.42C1047.54 102.007 1048.58 101.8 1049.73 101.8C1050.74 101.8 1051.62 101.967 1052.37 102.3C1053.13 102.62 1053.71 103.08 1054.11 103.68C1054.52 104.28 1054.73 104.993 1054.73 105.82C1054.73 106.273 1054.67 106.727 1054.55 107.18C1054.43 107.62 1054.2 108.087 1053.87 108.58C1053.54 109.073 1053.05 109.627 1052.41 110.24L1047.63 114.78L1047.09 113.8H1055.27V116H1044.95ZM1061.49 101.8C1062.77 101.8 1063.86 102.073 1064.75 102.62C1065.66 103.153 1066.35 103.933 1066.83 104.96C1067.31 105.987 1067.55 107.253 1067.55 108.76C1067.55 110.36 1067.26 111.713 1066.67 112.82C1066.1 113.927 1065.3 114.767 1064.27 115.34C1063.24 115.913 1062.05 116.2 1060.69 116.2C1059.98 116.2 1059.31 116.127 1058.67 115.98C1058.03 115.833 1057.48 115.607 1057.01 115.3L1057.97 113.34C1058.36 113.593 1058.78 113.773 1059.23 113.88C1059.68 113.973 1060.15 114.02 1060.63 114.02C1061.95 114.02 1063 113.613 1063.77 112.8C1064.54 111.987 1064.93 110.787 1064.93 109.2C1064.93 108.947 1064.92 108.653 1064.91 108.32C1064.9 107.973 1064.85 107.627 1064.77 107.28L1065.57 108.16C1065.34 108.707 1065.02 109.167 1064.59 109.54C1064.16 109.9 1063.66 110.173 1063.09 110.36C1062.52 110.547 1061.88 110.64 1061.19 110.64C1060.28 110.64 1059.46 110.467 1058.73 110.12C1058.01 109.76 1057.44 109.26 1057.01 108.62C1056.58 107.967 1056.37 107.207 1056.37 106.34C1056.37 105.407 1056.6 104.607 1057.05 103.94C1057.5 103.26 1058.12 102.733 1058.89 102.36C1059.68 101.987 1060.54 101.8 1061.49 101.8ZM1061.63 103.84C1061.1 103.84 1060.62 103.94 1060.21 104.14C1059.8 104.327 1059.47 104.6 1059.23 104.96C1059 105.307 1058.89 105.727 1058.89 106.22C1058.89 106.953 1059.14 107.533 1059.65 107.96C1060.16 108.387 1060.84 108.6 1061.69 108.6C1062.25 108.6 1062.74 108.5 1063.17 108.3C1063.6 108.087 1063.93 107.8 1064.17 107.44C1064.41 107.067 1064.53 106.653 1064.53 106.2C1064.53 105.76 1064.42 105.367 1064.19 105.02C1063.96 104.66 1063.64 104.373 1063.21 104.16C1062.78 103.947 1062.26 103.84 1061.63 103.84ZM1071.55 116L1077.33 103.04L1078.01 104.2H1070.07L1071.31 102.94V106.58H1068.89V102H1079.77V103.74L1074.33 116H1071.55ZM1087.05 116.2C1085.78 116.2 1084.7 115.933 1083.79 115.4C1082.88 114.853 1082.19 114.067 1081.71 113.04C1081.23 112.013 1080.99 110.747 1080.99 109.24C1080.99 107.64 1081.28 106.287 1081.85 105.18C1082.44 104.073 1083.24 103.233 1084.27 102.66C1085.31 102.087 1086.5 101.8 1087.85 101.8C1088.56 101.8 1089.23 101.873 1089.87 102.02C1090.52 102.167 1091.08 102.393 1091.53 102.7L1090.57 104.66C1090.18 104.407 1089.76 104.233 1089.31 104.14C1088.87 104.033 1088.4 103.98 1087.91 103.98C1086.59 103.98 1085.54 104.387 1084.77 105.2C1084 106.013 1083.61 107.213 1083.61 108.8C1083.61 109.053 1083.62 109.353 1083.63 109.7C1083.64 110.033 1083.69 110.373 1083.77 110.72L1082.97 109.84C1083.21 109.293 1083.54 108.84 1083.95 108.48C1084.38 108.107 1084.88 107.827 1085.45 107.64C1086.04 107.453 1086.67 107.36 1087.35 107.36C1088.27 107.36 1089.09 107.54 1089.81 107.9C1090.53 108.247 1091.1 108.747 1091.53 109.4C1091.96 110.04 1092.17 110.793 1092.17 111.66C1092.17 112.58 1091.94 113.38 1091.49 114.06C1091.04 114.74 1090.42 115.267 1089.65 115.64C1088.88 116.013 1088.01 116.2 1087.05 116.2ZM1086.91 114.16C1087.44 114.16 1087.92 114.067 1088.33 113.88C1088.74 113.68 1089.06 113.4 1089.29 113.04C1089.53 112.68 1089.65 112.26 1089.65 111.78C1089.65 111.047 1089.4 110.467 1088.89 110.04C1088.38 109.613 1087.7 109.4 1086.85 109.4C1086.29 109.4 1085.8 109.507 1085.37 109.72C1084.96 109.92 1084.62 110.2 1084.37 110.56C1084.13 110.92 1084.01 111.333 1084.01 111.8C1084.01 112.227 1084.12 112.62 1084.35 112.98C1084.58 113.34 1084.9 113.627 1085.33 113.84C1085.77 114.053 1086.3 114.16 1086.91 114.16ZM1098.17 116.2C1097.18 116.2 1096.22 116.06 1095.27 115.78C1094.34 115.487 1093.55 115.087 1092.91 114.58L1094.01 112.56C1094.52 112.973 1095.13 113.307 1095.85 113.56C1096.58 113.813 1097.34 113.94 1098.13 113.94C1099.05 113.94 1099.77 113.747 1100.29 113.36C1100.82 112.973 1101.09 112.453 1101.09 111.8C1101.09 111.36 1100.98 110.973 1100.75 110.64C1100.54 110.307 1100.15 110.053 1099.59 109.88C1099.04 109.707 1098.29 109.62 1097.33 109.62H1093.95L1094.67 102H1102.89V104.18H1095.63L1096.99 102.94L1096.45 108.64L1095.09 107.42H1097.91C1099.3 107.42 1100.41 107.607 1101.25 107.98C1102.1 108.34 1102.72 108.847 1103.11 109.5C1103.51 110.14 1103.71 110.873 1103.71 111.7C1103.71 112.513 1103.51 113.26 1103.11 113.94C1102.71 114.62 1102.1 115.167 1101.27 115.58C1100.46 115.993 1099.42 116.2 1098.17 116.2ZM1105.01 112.82V111.02L1111.91 102H1114.69L1107.89 111.02L1106.59 110.62H1117.69V112.82H1105.01ZM1112.69 116V112.82L1112.77 110.62V107.8H1115.21V116H1112.69ZM1123.42 116.2C1122.44 116.2 1121.47 116.06 1120.52 115.78C1119.59 115.487 1118.8 115.087 1118.16 114.58L1119.26 112.56C1119.77 112.973 1120.38 113.307 1121.1 113.56C1121.84 113.813 1122.6 113.94 1123.38 113.94C1124.3 113.94 1125.02 113.747 1125.54 113.36C1126.08 112.973 1126.34 112.453 1126.34 111.8C1126.34 111.36 1126.23 110.973 1126 110.64C1125.79 110.307 1125.4 110.053 1124.84 109.88C1124.3 109.707 1123.54 109.62 1122.58 109.62H1119.2L1119.92 102H1128.14V104.18H1120.88L1122.24 102.94L1121.7 108.64L1120.34 107.42H1123.16C1124.55 107.42 1125.66 107.607 1126.5 107.98C1127.36 108.34 1127.98 108.847 1128.36 109.5C1128.76 110.14 1128.96 110.873 1128.96 111.7C1128.96 112.513 1128.76 113.26 1128.36 113.94C1127.96 114.62 1127.35 115.167 1126.52 115.58C1125.71 115.993 1124.68 116.2 1123.42 116.2ZM1132.55 116L1138.33 103.04L1139.01 104.2H1131.07L1132.31 102.94V106.58H1129.89V102H1140.77V103.74L1135.33 116H1132.55ZM1147.64 116.2C1146.48 116.2 1145.48 116.027 1144.62 115.68C1143.77 115.333 1143.11 114.847 1142.64 114.22C1142.18 113.58 1141.94 112.833 1141.94 111.98C1141.94 111.127 1142.17 110.407 1142.62 109.82C1143.08 109.233 1143.73 108.787 1144.58 108.48C1145.44 108.173 1146.46 108.02 1147.64 108.02C1148.83 108.02 1149.85 108.173 1150.7 108.48C1151.57 108.787 1152.23 109.24 1152.68 109.84C1153.15 110.427 1153.38 111.14 1153.38 111.98C1153.38 112.833 1153.14 113.58 1152.66 114.22C1152.2 114.847 1151.53 115.333 1150.66 115.68C1149.81 116.027 1148.8 116.2 1147.64 116.2ZM1147.64 114.16C1148.6 114.16 1149.36 113.96 1149.92 113.56C1150.48 113.16 1150.76 112.607 1150.76 111.9C1150.76 111.207 1150.48 110.66 1149.92 110.26C1149.36 109.86 1148.6 109.66 1147.64 109.66C1146.68 109.66 1145.93 109.86 1145.38 110.26C1144.84 110.66 1144.56 111.207 1144.56 111.9C1144.56 112.607 1144.84 113.16 1145.38 113.56C1145.93 113.96 1146.68 114.16 1147.64 114.16ZM1147.64 109.38C1146.56 109.38 1145.64 109.24 1144.86 108.96C1144.09 108.667 1143.49 108.247 1143.06 107.7C1142.65 107.14 1142.44 106.473 1142.44 105.7C1142.44 104.9 1142.66 104.213 1143.08 103.64C1143.52 103.053 1144.14 102.6 1144.92 102.28C1145.71 101.96 1146.62 101.8 1147.64 101.8C1148.68 101.8 1149.6 101.96 1150.38 102.28C1151.17 102.6 1151.78 103.053 1152.22 103.64C1152.66 104.213 1152.88 104.9 1152.88 105.7C1152.88 106.473 1152.67 107.14 1152.24 107.7C1151.83 108.247 1151.23 108.667 1150.44 108.96C1149.66 109.24 1148.72 109.38 1147.64 109.38ZM1147.64 107.78C1148.47 107.78 1149.12 107.607 1149.6 107.26C1150.08 106.9 1150.32 106.42 1150.32 105.82C1150.32 105.193 1150.08 104.707 1149.58 104.36C1149.09 104.013 1148.44 103.84 1147.64 103.84C1146.84 103.84 1146.2 104.013 1145.72 104.36C1145.24 104.707 1145 105.193 1145 105.82C1145 106.42 1145.24 106.9 1145.7 107.26C1146.18 107.607 1146.83 107.78 1147.64 107.78Z" fill="#202020"/>
<path d="M1161.7 116V102H1174.08V116H1171.52V103.56L1172.12 104.2H1163.66L1164.26 103.56V116H1161.7ZM1177.75 116V105.32H1180.25V109.66H1185.63V105.32H1188.13V116H1185.63V111.78H1180.25V116H1177.75ZM1192.24 116.14C1191.78 116.14 1191.4 115.987 1191.08 115.68C1190.76 115.36 1190.6 114.96 1190.6 114.48C1190.6 113.973 1190.76 113.573 1191.08 113.28C1191.4 112.973 1191.78 112.82 1192.24 112.82C1192.69 112.82 1193.08 112.973 1193.4 113.28C1193.72 113.573 1193.88 113.973 1193.88 114.48C1193.88 114.96 1193.72 115.36 1193.4 115.68C1193.08 115.987 1192.69 116.14 1192.24 116.14ZM1201.31 111.48V109.4H1206.81V111.48H1201.31ZM1215.41 116V102H1227.79V116H1225.23V103.56L1225.83 104.2H1217.37L1217.97 103.56V116H1215.41ZM1233.68 116V106.84L1234.26 107.44H1229.92V105.32H1239.92V107.44H1235.6L1236.18 106.84V116H1233.68ZM1241.48 116.14C1241.02 116.14 1240.64 115.987 1240.32 115.68C1240 115.36 1239.84 114.96 1239.84 114.48C1239.84 113.973 1240 113.573 1240.32 113.28C1240.64 112.973 1241.02 112.82 1241.48 112.82C1241.93 112.82 1242.32 112.973 1242.64 113.28C1242.96 113.573 1243.12 113.973 1243.12 114.48C1243.12 114.96 1242.96 115.36 1242.64 115.68C1242.32 115.987 1241.93 116.14 1241.48 116.14ZM1255.95 116.2C1254.79 116.2 1253.78 116.027 1252.93 115.68C1252.07 115.333 1251.41 114.847 1250.95 114.22C1250.48 113.58 1250.25 112.833 1250.25 111.98C1250.25 111.127 1250.47 110.407 1250.93 109.82C1251.38 109.233 1252.03 108.787 1252.89 108.48C1253.74 108.173 1254.76 108.02 1255.95 108.02C1257.13 108.02 1258.15 108.173 1259.01 108.48C1259.87 108.787 1260.53 109.24 1260.99 109.84C1261.45 110.427 1261.69 111.14 1261.69 111.98C1261.69 112.833 1261.45 113.58 1260.97 114.22C1260.5 114.847 1259.83 115.333 1258.97 115.68C1258.11 116.027 1257.11 116.2 1255.95 116.2ZM1255.95 114.16C1256.91 114.16 1257.67 113.96 1258.23 113.56C1258.79 113.16 1259.07 112.607 1259.07 111.9C1259.07 111.207 1258.79 110.66 1258.23 110.26C1257.67 109.86 1256.91 109.66 1255.95 109.66C1254.99 109.66 1254.23 109.86 1253.69 110.26C1253.14 110.66 1252.87 111.207 1252.87 111.9C1252.87 112.607 1253.14 113.16 1253.69 113.56C1254.23 113.96 1254.99 114.16 1255.95 114.16ZM1255.95 109.38C1254.87 109.38 1253.94 109.24 1253.17 108.96C1252.39 108.667 1251.79 108.247 1251.37 107.7C1250.95 107.14 1250.75 106.473 1250.75 105.7C1250.75 104.9 1250.96 104.213 1251.39 103.64C1251.83 103.053 1252.44 102.6 1253.23 102.28C1254.01 101.96 1254.92 101.8 1255.95 101.8C1256.99 101.8 1257.9 101.96 1258.69 102.28C1259.47 102.6 1260.09 103.053 1260.53 103.64C1260.97 104.213 1261.19 104.9 1261.19 105.7C1261.19 106.473 1260.97 107.14 1260.55 107.7C1260.13 108.247 1259.53 108.667 1258.75 108.96C1257.96 109.24 1257.03 109.38 1255.95 109.38ZM1255.95 107.78C1256.77 107.78 1257.43 107.607 1257.91 107.26C1258.39 106.9 1258.63 106.42 1258.63 105.82C1258.63 105.193 1258.38 104.707 1257.89 104.36C1257.39 104.013 1256.75 103.84 1255.95 103.84C1255.15 103.84 1254.51 104.013 1254.03 104.36C1253.55 104.707 1253.31 105.193 1253.31 105.82C1253.31 106.42 1253.54 106.9 1254.01 107.26C1254.49 107.607 1255.13 107.78 1255.95 107.78ZM1264.93 108.52C1264.48 108.52 1264.09 108.367 1263.77 108.06C1263.45 107.74 1263.29 107.34 1263.29 106.86C1263.29 106.353 1263.45 105.953 1263.77 105.66C1264.09 105.353 1264.48 105.2 1264.93 105.2C1265.39 105.2 1265.77 105.353 1266.09 105.66C1266.41 105.953 1266.57 106.353 1266.57 106.86C1266.57 107.34 1266.41 107.74 1266.09 108.06C1265.77 108.367 1265.39 108.52 1264.93 108.52ZM1264.93 116.14C1264.48 116.14 1264.09 115.987 1263.77 115.68C1263.45 115.36 1263.29 114.96 1263.29 114.48C1263.29 113.973 1263.45 113.573 1263.77 113.28C1264.09 112.973 1264.48 112.82 1264.93 112.82C1265.39 112.82 1265.77 112.973 1266.09 113.28C1266.41 113.573 1266.57 113.973 1266.57 114.48C1266.57 114.96 1266.41 115.36 1266.09 115.68C1265.77 115.987 1265.39 116.14 1264.93 116.14ZM1274.1 116.2C1272.99 116.2 1271.99 115.92 1271.1 115.36C1270.22 114.8 1269.52 113.987 1269.02 112.92C1268.51 111.84 1268.26 110.533 1268.26 109C1268.26 107.467 1268.51 106.167 1269.02 105.1C1269.52 104.02 1270.22 103.2 1271.1 102.64C1271.99 102.08 1272.99 101.8 1274.1 101.8C1275.22 101.8 1276.22 102.08 1277.1 102.64C1277.98 103.2 1278.67 104.02 1279.18 105.1C1279.7 106.167 1279.96 107.467 1279.96 109C1279.96 110.533 1279.7 111.84 1279.18 112.92C1278.67 113.987 1277.98 114.8 1277.1 115.36C1276.22 115.92 1275.22 116.2 1274.1 116.2ZM1274.1 113.94C1274.75 113.94 1275.32 113.767 1275.8 113.42C1276.28 113.06 1276.65 112.513 1276.92 111.78C1277.2 111.047 1277.34 110.12 1277.34 109C1277.34 107.867 1277.2 106.94 1276.92 106.22C1276.65 105.487 1276.28 104.947 1275.8 104.6C1275.32 104.24 1274.75 104.06 1274.1 104.06C1273.47 104.06 1272.91 104.24 1272.42 104.6C1271.94 104.947 1271.56 105.487 1271.28 106.22C1271.01 106.94 1270.88 107.867 1270.88 109C1270.88 110.12 1271.01 111.047 1271.28 111.78C1271.56 112.513 1271.94 113.06 1272.42 113.42C1272.91 113.767 1273.47 113.94 1274.1 113.94ZM1287.55 116.2C1286.45 116.2 1285.45 115.92 1284.55 115.36C1283.67 114.8 1282.98 113.987 1282.47 112.92C1281.97 111.84 1281.71 110.533 1281.71 109C1281.71 107.467 1281.97 106.167 1282.47 105.1C1282.98 104.02 1283.67 103.2 1284.55 102.64C1285.45 102.08 1286.45 101.8 1287.55 101.8C1288.67 101.8 1289.67 102.08 1290.55 102.64C1291.43 103.2 1292.13 104.02 1292.63 105.1C1293.15 106.167 1293.41 107.467 1293.41 109C1293.41 110.533 1293.15 111.84 1292.63 112.92C1292.13 113.987 1291.43 114.8 1290.55 115.36C1289.67 115.92 1288.67 116.2 1287.55 116.2ZM1287.55 113.94C1288.21 113.94 1288.77 113.767 1289.25 113.42C1289.73 113.06 1290.11 112.513 1290.37 111.78C1290.65 111.047 1290.79 110.12 1290.79 109C1290.79 107.867 1290.65 106.94 1290.37 106.22C1290.11 105.487 1289.73 104.947 1289.25 104.6C1288.77 104.24 1288.21 104.06 1287.55 104.06C1286.93 104.06 1286.37 104.24 1285.87 104.6C1285.39 104.947 1285.01 105.487 1284.73 106.22C1284.47 106.94 1284.33 107.867 1284.33 109C1284.33 110.12 1284.47 111.047 1284.73 111.78C1285.01 112.513 1285.39 113.06 1285.87 113.42C1286.37 113.767 1286.93 113.94 1287.55 113.94ZM1300.92 111.48V109.4H1306.42V111.48H1300.92ZM1316.16 116V103L1317.3 104.18H1313.2V102H1318.76V116H1316.16ZM1323.88 116L1329.66 103.04L1330.34 104.2H1322.4L1323.64 102.94V106.58H1321.22V102H1332.1V103.74L1326.66 116H1323.88ZM1334.87 108.52C1334.42 108.52 1334.03 108.367 1333.71 108.06C1333.39 107.74 1333.23 107.34 1333.23 106.86C1333.23 106.353 1333.39 105.953 1333.71 105.66C1334.03 105.353 1334.42 105.2 1334.87 105.2C1335.33 105.2 1335.71 105.353 1336.03 105.66C1336.35 105.953 1336.51 106.353 1336.51 106.86C1336.51 107.34 1336.35 107.74 1336.03 108.06C1335.71 108.367 1335.33 108.52 1334.87 108.52ZM1334.87 116.14C1334.42 116.14 1334.03 115.987 1333.71 115.68C1333.39 115.36 1333.23 114.96 1333.23 114.48C1333.23 113.973 1333.39 113.573 1333.71 113.28C1334.03 112.973 1334.42 112.82 1334.87 112.82C1335.33 112.82 1335.71 112.973 1336.03 113.28C1336.35 113.573 1336.51 113.973 1336.51 114.48C1336.51 114.96 1336.35 115.36 1336.03 115.68C1335.71 115.987 1335.33 116.14 1334.87 116.14ZM1344.04 116.2C1342.93 116.2 1341.93 115.92 1341.04 115.36C1340.16 114.8 1339.46 113.987 1338.96 112.92C1338.45 111.84 1338.2 110.533 1338.2 109C1338.2 107.467 1338.45 106.167 1338.96 105.1C1339.46 104.02 1340.16 103.2 1341.04 102.64C1341.93 102.08 1342.93 101.8 1344.04 101.8C1345.16 101.8 1346.16 102.08 1347.04 102.64C1347.92 103.2 1348.61 104.02 1349.12 105.1C1349.64 106.167 1349.9 107.467 1349.9 109C1349.9 110.533 1349.64 111.84 1349.12 112.92C1348.61 113.987 1347.92 114.8 1347.04 115.36C1346.16 115.92 1345.16 116.2 1344.04 116.2ZM1344.04 113.94C1344.69 113.94 1345.26 113.767 1345.74 113.42C1346.22 113.06 1346.59 112.513 1346.86 111.78C1347.14 111.047 1347.28 110.12 1347.28 109C1347.28 107.867 1347.14 106.94 1346.86 106.22C1346.59 105.487 1346.22 104.947 1345.74 104.6C1345.26 104.24 1344.69 104.06 1344.04 104.06C1343.41 104.06 1342.85 104.24 1342.36 104.6C1341.88 104.947 1341.5 105.487 1341.22 106.22C1340.95 106.94 1340.82 107.867 1340.82 109C1340.82 110.12 1340.95 111.047 1341.22 111.78C1341.5 112.513 1341.88 113.06 1342.36 113.42C1342.85 113.767 1343.41 113.94 1344.04 113.94ZM1357.49 116.2C1356.39 116.2 1355.39 115.92 1354.49 115.36C1353.61 114.8 1352.92 113.987 1352.41 112.92C1351.91 111.84 1351.65 110.533 1351.65 109C1351.65 107.467 1351.91 106.167 1352.41 105.1C1352.92 104.02 1353.61 103.2 1354.49 102.64C1355.39 102.08 1356.39 101.8 1357.49 101.8C1358.61 101.8 1359.61 102.08 1360.49 102.64C1361.37 103.2 1362.07 104.02 1362.57 105.1C1363.09 106.167 1363.35 107.467 1363.35 109C1363.35 110.533 1363.09 111.84 1362.57 112.92C1362.07 113.987 1361.37 114.8 1360.49 115.36C1359.61 115.92 1358.61 116.2 1357.49 116.2ZM1357.49 113.94C1358.15 113.94 1358.71 113.767 1359.19 113.42C1359.67 113.06 1360.05 112.513 1360.31 111.78C1360.59 111.047 1360.73 110.12 1360.73 109C1360.73 107.867 1360.59 106.94 1360.31 106.22C1360.05 105.487 1359.67 104.947 1359.19 104.6C1358.71 104.24 1358.15 104.06 1357.49 104.06C1356.87 104.06 1356.31 104.24 1355.81 104.6C1355.33 104.947 1354.95 105.487 1354.67 106.22C1354.41 106.94 1354.27 107.867 1354.27 109C1354.27 110.12 1354.41 111.047 1354.67 111.78C1354.95 112.513 1355.33 113.06 1355.81 113.42C1356.31 113.767 1356.87 113.94 1357.49 113.94Z" fill="#595757"/>
</svg>
